<?xml version="1.0" standalone="no"?>
<!DOCTYPE svg PUBLIC "-//W3C//DTD SVG 1.1//EN" "http://www.w3.org/Graphics/SVG/1.1/DTD/svg11.dtd" >
<svg xmlns="http://www.w3.org/2000/svg">
<metadata>Generated by IcoMoon</metadata>
<defs>
<font id="brcm" horiz-adv-x="1024">
<font-face units-per-em="1024" ascent="960" descent="-64" />
<missing-glyph horiz-adv-x="1024" />
<glyph unicode="&#x20;" horiz-adv-x="512" d="" />
<glyph unicode="&#xe600;" glyph-name="aboutus" d="M512 960c-283.022 0-512-230.4-512-512s228.978-512 512-512c283.022 0 512 228.978 512 512 0 281.6-228.978 512-512 512zM573.156 149.333h-122.311v372.622h122.311v-372.622zM512 607.289c-39.822 0-69.689 29.867-69.689 69.689s31.289 69.689 69.689 69.689c39.822 0 69.689-29.867 69.689-69.689s-29.867-69.689-69.689-69.689z" />
<glyph unicode="&#xe601;" glyph-name="auto_adas" d="M254.578 487.822h18.489l-2.844-54.044h-12.8l-2.844 54.044zM264.533 429.511c-5.689 0-9.956-4.267-9.956-11.378 0-5.689 4.267-11.378 9.956-11.378s9.956 4.267 9.956 11.378c0 5.689-4.267 11.378-9.956 11.378zM267.378 658.489l143.644-210.489-143.644-210.489c-78.222 39.822-128 120.889-128 210.489 0 88.178 49.778 169.244 128 210.489zM264.533 512c-35.556 0-64-28.444-64-64s28.444-64 64-64c35.556 0 64 28.444 64 64s-28.444 64-64 64zM624.356 671.289c-27.022 0-109.511-1.422-108.089-55.467 1.422-46.933 9.956-78.222 9.956-78.222s55.467 9.956 98.133 9.956c42.667 0 98.133-9.956 98.133-9.956s8.533 32.711 9.956 78.222c1.422 54.044-79.644 55.467-108.089 55.467zM1024 448c0-283.022-228.978-512-512-512s-512 228.978-512 512 228.978 512 512 512 512-228.978 512-512zM430.933 448l-157.867 231.822c-88.178-39.822-150.756-128-150.756-231.822s61.156-192 150.756-231.822l157.867 231.822zM787.911 546.133l-25.6 11.378c2.844 9.956 5.689 24.178 5.689 34.133 1.422 17.067 1.422 59.733 0 71.111s-18.489 75.378-48.356 103.822c-29.867 29.867-95.289 28.444-95.289 28.444s-65.422 1.422-95.289-28.444c-29.867-29.867-46.933-92.444-48.356-103.822s-1.422-54.044 0-71.111c0-9.956 2.844-22.756 5.689-34.133l-25.6-11.378c-9.956-4.267-14.222-15.644-9.956-25.6 2.844-7.111 9.956-11.378 18.489-11.378 2.844 0 5.689 0 8.533 1.422l12.8 5.689c-1.422-52.622-5.689-167.822-7.111-186.311-1.422-24.178-8.533-35.556-5.689-64 1.422-27.022 2.844-71.111 18.489-93.867s66.844-44.089 128-44.089c61.156 0 112.356 21.333 128 44.089s17.067 66.844 18.489 93.867c1.422 27.022-4.267 39.822-5.689 64-1.422 18.489-4.267 132.267-7.111 186.311l12.8-5.689c2.844-1.422 5.689-1.422 8.533-1.422 7.111 0 14.222 4.267 18.489 11.378 4.267 9.956 0 21.333-9.956 25.6zM624.356 302.933c0 0-58.311 0-95.289 15.644-1.422-14.222-2.844-54.044-2.844-65.422s32.711-32.711 99.556-32.711c66.844 0 99.556 21.333 99.556 32.711s-1.422 49.778-2.844 65.422c-39.822-15.644-98.133-15.644-98.133-15.644z" />
<glyph unicode="&#xe602;" glyph-name="auto_antenna" d="M746.667 607.289l5.689-129.422c-136.533 9.956-230.4 17.067-237.511 17.067l-5.689 1.422c-9.956 2.844-18.489 8.533-24.178 15.644s-8.533 17.067-8.533 25.6c0 7.111 1.422 14.222 5.689 21.333s11.378 11.378 18.489 14.222c21.333 8.533 42.667 12.8 81.067 18.489 44.089 5.689 108.089 12.8 164.978 15.644zM504.889 254.578c-45.511 0-81.067-36.978-81.067-81.067 0-45.511 36.978-81.067 81.067-81.067 45.511 0 81.067 36.978 81.067 81.067 1.422 44.089-35.556 81.067-81.067 81.067zM1024 448c0-283.022-228.978-512-512-512s-512 228.978-512 512c0 283.022 228.978 512 512 512s512-228.978 512-512zM337.067 735.289c0-1.422 1.422-2.844 2.844-2.844l18.489-9.956c2.844-1.422 5.689 0 7.111 1.422 21.333 36.978 55.467 64 96.711 75.378s83.911 7.111 122.311-14.222c1.422 0 2.844-1.422 4.267 0 1.422 0 2.844 1.422 2.844 2.844l9.956 18.489c0 1.422 1.422 2.844 0 4.267 0 1.422-1.422 2.844-2.844 2.844-44.089 25.6-96.711 31.289-145.067 17.067-49.778-14.222-91.022-45.511-115.2-91.022-1.422-1.422-2.844-2.844-1.422-4.267zM571.733 742.4c-29.867 15.644-62.578 19.911-95.289 11.378s-58.311-29.867-75.378-58.311c0-1.422-1.422-2.844 0-4.267 0-1.422 1.422-2.844 2.844-2.844l17.067-9.956c2.844-1.422 5.689 0 7.111 1.422 12.8 22.756 32.711 38.4 58.311 45.511 24.178 7.111 49.778 4.267 72.533-8.533 1.422 0 2.844-1.422 4.267 0 1.422 0 2.844 1.422 2.844 2.844l9.956 17.067c0 1.422 1.422 2.844 0 4.267-1.422 0-2.844 1.422-4.267 1.422zM635.733 173.511c0 71.111-58.311 129.422-129.422 129.422s-129.422-58.311-129.422-129.422c0-71.111 58.311-129.422 129.422-129.422 71.111-1.422 129.422 56.889 129.422 129.422zM951.467 448c0 5.689 0 11.378 0 17.067-52.622 2.844-102.4 7.111-149.333 9.956l-14.222 132.267c36.978 1.422 75.378 2.844 110.933 2.844 8.533 0 15.644 0 24.178 0-7.111 17.067-14.222 32.711-22.756 48.356 0 0 0 0-1.422 0v0c-98.133 0-224.711-7.111-317.156-17.067-7.111 7.111-21.333 21.333-36.978 27.022-12.8 5.689-27.022 7.111-38.4 8.533-8.533 1.422-17.067-5.689-18.489-14.222l-5.689-36.978c-9.956-2.844-17.067-4.267-21.333-7.111-66.844-31.289-133.689-99.556-174.933-177.778h49.778c8.533 0 14.222-8.533 11.378-15.644l-14.222-38.4c-1.422-2.844-2.844-4.267-5.689-5.689-24.178-14.222-49.778-22.756-76.8-28.444-4.267-18.489 0-36.978-4.267-55.467-4.267-21.333-15.644-42.667-11.378-61.156 5.689-28.444 38.4-76.8 99.556-108.089-8.533 35.556-8.533 75.378 11.378 116.622 29.867 62.578 91.022 106.667 160.711 106.667 99.556 0 179.2-79.644 179.2-179.2 0-25.6-5.689-49.778-14.222-71.111h115.2c99.556 82.489 164.978 207.644 164.978 347.022z" />
<glyph unicode="&#xe603;" glyph-name="auto_infotainment" d="M237.511 254.578h548.978v347.022h-548.978v-347.022zM456.533 517.689c0 11.378 12.8 18.489 22.756 12.8l135.111-89.6c8.533-5.689 8.533-18.489 0-24.178l-135.111-89.6c-9.956-7.111-22.756 0-22.756 12.8v177.778zM512 960c-283.022 0-512-228.978-512-512s228.978-512 512-512 512 228.978 512 512c0 283.022-228.978 512-512 512zM826.311 254.578c0-21.333-18.489-39.822-39.822-39.822h-548.978c-21.333 0-39.822 18.489-39.822 39.822v347.022c0 21.333 18.489 39.822 39.822 39.822h106.667v49.778c0 11.378 8.533 19.911 19.911 19.911h294.4c11.378 0 19.911-8.533 19.911-19.911v-49.778h106.667c21.333 0 39.822-18.489 39.822-39.822v-347.022z" />
<glyph unicode="&#xe604;" glyph-name="auto_telematics" d="M612.978 310.044l-7.111-58.311c-1.422-7.111-7.111-12.8-14.222-12.8h-159.289c-7.111 0-12.8 5.689-14.222 12.8l-7.111 58.311c-1.422 8.533 5.689 15.644 14.222 15.644h173.511c8.533 0 14.222-7.111 14.222-15.644zM1024 448c0-283.022-228.978-512-512-512s-512 228.978-512 512c0 283.022 228.978 512 512 512s512-228.978 512-512zM338.489 736.711c0-1.422 0-2.844 1.422-4.267l14.222-14.222c1.422-1.422 2.844-1.422 4.267-1.422s2.844 0 4.267 1.422c39.822 39.822 92.444 61.156 149.333 61.156s109.511-21.333 149.333-61.156c1.422-1.422 5.689-1.422 7.111 0l14.222 14.222c1.422 1.422 1.422 2.844 1.422 4.267s0 2.844-1.422 4.267c-45.511 45.511-106.667 71.111-170.667 71.111s-125.156-25.6-170.667-71.111c-1.422-2.844-2.844-2.844-2.844-4.267zM584.533 641.422c1.422-1.422 2.844-1.422 4.267-1.422s2.844 0 4.267 1.422l14.222 14.222c1.422 1.422 1.422 2.844 1.422 4.267s0 2.844-1.422 4.267c-25.6 25.6-59.733 38.4-95.289 38.4s-69.689-14.222-95.289-38.4c-1.422-1.422-1.422-2.844-1.422-4.267s0-2.844 1.422-4.267l14.222-14.222c1.422-1.422 5.689-1.422 7.111 0 19.911 19.911 45.511 29.867 72.533 29.867s54.044-11.378 73.956-29.867zM512 635.733c-18.489 0-32.711-14.222-32.711-32.711s14.222-32.711 32.711-32.711 32.711 14.222 32.711 32.711c0 18.489-14.222 32.711-32.711 32.711zM622.933 678.4c1.422-1.422 2.844-1.422 4.267-1.422s2.844 0 4.267 1.422l14.222 14.222c1.422 1.422 1.422 2.844 1.422 4.267s0 2.844-1.422 4.267c-35.556 35.556-82.489 54.044-132.267 54.044s-96.711-19.911-132.267-54.044c-1.422-1.422-1.422-2.844-1.422-4.267s0-2.844 1.422-4.267l14.222-14.222c1.422-1.422 5.689-1.422 7.111 0 29.867 29.867 68.267 45.511 110.933 45.511s79.644-15.644 109.511-45.511zM804.978 302.933l-118.044-25.6c0 0-4.267 41.244 15.644 51.2s93.867 25.6 93.867 25.6-17.067 24.178-35.556 42.667c5.689 0 11.378 0 15.644 0 19.911 0 24.178 14.222 24.178 24.178s-11.378 21.333-21.333 21.333h-28.444c-8.533 0-15.644-2.844-21.333-8.533l-56.889 72.533c-7.111 9.956-18.489 15.644-31.289 17.067-29.867 1.422-86.756 5.689-126.578 5.689-41.244 0-96.711-2.844-126.578-5.689-12.8-1.422-24.178-7.111-31.289-17.067l-56.889-72.533c-5.689 5.689-14.222 8.533-21.333 8.533h-28.444c-11.378 0-21.333-11.378-21.333-21.333s4.267-24.178 24.178-24.178c5.689 0 11.378 0 15.644 0-18.489-18.489-35.556-42.667-35.556-42.667s72.533-15.644 93.867-25.6c19.911-9.956 15.644-51.2 15.644-51.2l-119.467 24.178v-83.911c0 0 2.844-1.422 11.378-2.844v-32.711c0-17.067 14.222-31.289 31.289-31.289h48.356c17.067 0 31.289 14.222 31.289 31.289v17.067c42.667-2.844 98.133-5.689 172.089-5.689s129.422 2.844 172.089 5.689v-17.067c0-17.067 14.222-31.289 31.289-31.289h48.356c17.067 0 31.289 14.222 31.289 31.289v32.711c7.111 1.422 11.378 2.844 11.378 2.844v85.333zM652.8 493.511c-4.267 4.267-9.956 8.533-15.644 8.533-29.867 1.422-85.333 5.689-125.156 5.689s-95.289-2.844-125.156-5.689c-5.689 0-11.378-2.844-15.644-8.533l-58.311-75.378c41.244-1.422 139.378-9.956 180.622-12.8 12.8-1.422 25.6-1.422 36.978 0 41.244 4.267 139.378 11.378 180.622 12.8l-58.311 75.378z" />
<glyph unicode="&#xe605;" glyph-name="automotivesystems" d="M476.444 595.911l-92.444 108.089c76.8 38.4 169.244 39.822 250.311 2.844l-93.867-110.933c-17.067-19.911-45.511-21.333-64 0zM728.178 635.733l-79.644-120.889c-15.644-22.756-7.111-51.2 18.489-62.578l129.422-58.311c14.222 86.756-8.533 176.356-68.267 241.778zM389.689 335.644l-130.844-31.289c18.489-34.133 45.511-65.422 79.644-91.022s71.111-41.244 109.511-49.778l-7.111 133.689c-1.422 28.444-24.178 45.511-51.2 38.4zM365.511 520.533l-73.956 110.933c-4.267-4.267-7.111-8.533-9.956-12.8-44.089-59.733-62.578-130.844-56.889-200.533l120.889 44.089c27.022 9.956 35.556 35.556 19.911 58.311zM574.578 291.556l-8.533-129.422c68.267 12.8 130.844 51.2 176.356 110.933 2.844 4.267 7.111 8.533 9.956 14.222l-126.578 38.4c-25.6 8.533-48.356-7.111-51.2-34.133zM467.911 385.422c32.711-24.178 79.644-18.489 103.822 15.644 24.178 32.711 18.489 79.644-15.644 103.822-32.711 24.178-79.644 18.489-103.822-15.644-24.178-32.711-17.067-78.222 15.644-103.822zM455.111 527.644c7.111 8.533 4.267 21.333-4.267 27.022-8.533 7.111-21.333 4.267-27.022-4.267-7.111-8.533-4.267-21.333 4.267-27.022 8.533-7.111 21.333-4.267 27.022 4.267zM635.733 418.133c-8.533 7.111-21.333 4.267-27.022-4.267-7.111-8.533-4.267-21.333 4.267-27.022 8.533-7.111 21.333-4.267 27.022 4.267 5.689 7.111 4.267 19.911-4.267 27.022zM571.733 526.222c8.533-7.111 21.333-4.267 27.022 4.267 7.111 8.533 4.267 21.333-4.267 27.022-8.533 7.111-21.333 4.267-27.022-4.267s-4.267-21.333 4.267-27.022zM409.6 428.089c-8.533 7.111-21.333 4.267-27.022-4.267-7.111-8.533-4.267-21.333 4.267-27.022 8.533-7.111 21.333-4.267 27.022 4.267 7.111 8.533 4.267 19.911-4.267 27.022zM496.356 338.489c-7.111-8.533-4.267-21.333 4.267-27.022 8.533-7.111 21.333-4.267 27.022 4.267 7.111 8.533 4.267 21.333-4.267 27.022-7.111 5.689-19.911 4.267-27.022-4.267zM1024 448c0-283.022-228.978-512-512-512s-512 228.978-512 512 228.978 512 512 512 512-228.978 512-512zM866.133 448c0 194.844-157.867 354.133-354.133 354.133s-354.133-159.289-354.133-354.133c0-194.844 157.867-354.133 354.133-354.133s354.133 159.289 354.133 354.133z" />
<glyph unicode="&#xe606;" glyph-name="back_to_top" d="M512 960c-283.022 0-512-228.978-512-512s228.978-512 512-512 512 228.978 512 512c0 283.022-228.978 512-512 512zM777.956 244.622l-31.289-31.289c-4.267-4.267-11.378-4.267-15.644 0l-219.022 217.6-219.022-219.022c-4.267-4.267-11.378-4.267-15.644 0l-31.289 31.289c-4.267 4.267-4.267 11.378 0 15.644l263.111 263.111c1.422 1.422 4.267 1.422 5.689 0l263.111-263.111c4.267-4.267 4.267-9.956 0-14.222zM777.956 462.222l-31.289-31.289c-4.267-4.267-11.378-4.267-15.644 0l-219.022 217.6-219.022-217.6c-4.267-4.267-11.378-4.267-15.644 0l-31.289 31.289c-4.267 4.267-4.267 11.378 0 15.644l263.111 263.111c1.422 1.422 4.267 1.422 5.689 0l263.111-263.111c4.267-4.267 4.267-11.378 0-15.644z" />
<glyph unicode="&#xe607;" glyph-name="blogs" d="M629.76 560.213c0.008 0.36 0.013 0.785 0.013 1.21 0 32.126-26.043 58.169-58.169 58.169-1.757 0-3.495-0.078-5.212-0.23l-144.134 0.016v-117.476h144.213c38.969 0 63.289 24.32 63.289 58.311zM512 960c-282.77 0-512-229.23-512-512s229.23-512 512-512c282.77 0 512 229.23 512 512s-229.23 512-512 512zM600.604 177.778h-293.404v540.444h284.444c102.969 0 155.591-65.707 155.591-137.813 0-68.124-42.667-113.778-93.156-124.018 57.031-8.391 103.68-65.28 103.68-132.836 0-80.924-54.329-145.778-157.156-145.778zM570.596 403.058h-148.338v-125.724h148.338c43.804 0 69.689 23.467 69.689 62.436-0.284 34.133-24.32 63.289-69.689 63.289z" />
<glyph unicode="&#xe608;" glyph-name="careers" d="M512 960c-283.022 0-512-230.4-512-512s228.978-512 512-512c283.022 0 512 228.978 512 512 0 281.6-228.978 512-512 512zM123.733 320c0 4.267 1.422 36.978 1.422 41.244 9.956 51.2 34.133 91.022 126.578 98.133-29.867 18.489-49.778 56.889-49.778 96.711 0 54.044 36.978 86.756 83.911 86.756 45.511 0 83.911-34.133 83.911-86.756 0-39.822-19.911-79.644-49.778-96.711 31.289-2.844 54.044-8.533 71.111-17.067-85.333-25.6-109.511-82.489-119.467-136.533-106.667 0-147.911 14.222-147.911 14.222zM516.267 224.711c-157.867 0-217.6 19.911-217.6 19.911 1.422 5.689 1.422 49.778 2.844 55.467 12.8 66.844 45.511 119.467 166.4 129.422-38.4 24.178-65.422 75.378-65.422 128 0 71.111 49.778 115.2 110.933 115.2s110.933-44.089 110.933-115.2c0-52.622-27.022-105.244-65.422-128 119.467-9.956 152.178-59.733 166.4-126.578 1.422-7.111 2.844-51.2 2.844-58.311-2.844 0-59.733-19.911-211.911-19.911zM752.356 304.356c0 0 0 0 0 0-14.222 73.956-51.2 116.622-119.467 136.533 17.067 8.533 41.244 15.644 71.111 17.067-29.867 18.489-49.778 56.889-49.778 96.711 0 54.044 36.978 86.756 83.911 86.756 45.511 0 83.911-34.133 83.911-86.756 0-39.822-19.911-79.644-49.778-96.711 89.6-7.111 115.2-45.511 125.156-95.289 1.422-5.689 1.422-38.4 2.844-44.089 0 1.422-41.244-12.8-147.911-14.222z" />
<glyph unicode="&#xe609;" glyph-name="communities" d="M512 960c-283.022 0-512-228.978-512-512s228.978-512 512-512 512 228.978 512 512-228.978 512-512 512zM783.644 662.756c56.889-1.422 103.822-49.778 103.822-106.667s-46.933-102.4-103.822-99.556c-56.889 1.422-103.822 49.778-103.822 106.667s46.933 100.978 103.822 99.556zM517.689 816.356c56.889 0 103.822-46.933 103.822-103.822s-46.933-103.822-103.822-103.822c-56.889 0-103.822 46.933-103.822 103.822s46.933 103.822 103.822 103.822zM260.267 622.933c56.889 0 103.822-46.933 103.822-103.822s-46.933-103.822-103.822-103.822c-56.889 0-103.822 46.933-103.822 103.822 0 58.311 46.933 103.822 103.822 103.822zM425.244 120.889c-7.111 82.489-21.333 103.822-21.333 103.822s-27.022 55.467-41.244 62.578l8.533-187.733c-31.289-12.8-65.422-18.489-100.978-18.489-4.267 0-9.956 0-14.222 0-39.822 28.444-75.378 61.156-103.822 100.978l4.267 105.244c-9.956-5.689-29.867-39.822-36.978-54.044-14.222 27.022-27.022 54.044-35.556 83.911 21.333 36.978 52.622 73.956 93.867 73.956h164.978c82.489 0 123.733-145.067 123.733-145.067l21.333-103.822-62.578-21.333zM527.644 273.067c-14.222 0-29.867 1.422-44.089 2.844-11.378 29.867-35.556 83.911-73.956 109.511l4.267 93.867c-14.222-7.111-36.978-66.844-24.178-75.378-17.067 8.533-46.933 8.533-66.844 12.8 17.067 5.689 32.711 18.489 44.089 34.133 12.8 21.333 14.222 45.511 14.222 69.689 0 14.222-4.267 18.489 4.267 28.444 11.378 12.8 31.289 34.133 49.778 34.133 2.844 0 164.978 0 164.978 0 19.911 0 38.4-8.533 52.622-21.333 8.533-7.111 7.111-39.822 11.378-49.778 11.378-32.711 36.978-44.089 64-61.156 0 0-46.933 1.422-46.933 1.422-12.8 0-24.178-2.844-34.133-7.111-8.533 15.644-19.911 31.289-27.022 35.556l2.844-52.622c-44.089-39.822-65.422-116.622-65.422-116.622l-7.111-36.978-22.756-1.422zM887.467 321.422l4.267-110.933c-21.333-34.133-46.933-65.422-76.8-92.444-7.111 0-14.222 0-21.333 0-44.089 1.422-85.333 12.8-122.311 32.711l8.533 179.2c-14.222-5.689-41.244-61.156-41.244-61.156s-14.222-19.911-21.333-102.4l-62.578 22.756 21.333 102.4c0 0 41.244 143.644 123.733 140.8 0 0 164.978-5.689 164.978-5.689 31.289-1.422 71.111-28.444 82.489-58.311 8.533-22.756-11.378-76.8-27.022-96.711-9.956 14.222-15.644 41.244-32.711 49.778z" />
<glyph unicode="&#xe60a;" glyph-name="connectedaudiovideo" d="M768 413.867l-376.889-248.889c-27.022-18.489-62.578 1.422-62.578 34.133v497.778c0 32.711 35.556 51.2 62.578 34.133l376.889-248.889c24.178-15.644 24.178-52.622 0-68.267zM1024 448c0-283.022-228.978-512-512-512s-512 228.978-512 512 228.978 512 512 512 512-228.978 512-512zM958.578 448c0 119.467-46.933 231.822-130.844 315.733-83.911 85.333-196.267 130.844-315.733 130.844s-231.822-46.933-315.733-130.844c-85.333-83.911-130.844-196.267-130.844-315.733s46.933-231.822 130.844-315.733c83.911-83.911 196.267-130.844 315.733-130.844s231.822 46.933 315.733 130.844c85.333 83.911 130.844 196.267 130.844 315.733z" />
<glyph unicode="&#xe60b;" glyph-name="corpresponsibility" d="M512 960c-283.022 0-512-228.978-512-512s228.978-512 512-512 512 228.978 512 512c0 283.022-228.978 512-512 512zM413.867 176.356c-4.267-5.689-12.8-5.689-18.489-1.422 0 0-36.978 31.289-38.4 32.711s-4.267 1.422-7.111-1.422c-1.422-1.422-17.067-19.911-22.756-27.022-1.422-1.422-1.422-2.844 0-5.689 1.422-1.422 38.4-32.711 38.4-32.711 5.689-4.267 5.689-12.8 1.422-18.489s-12.8-5.689-18.489-1.422c0 0-38.4 32.711-39.822 32.711-1.422 1.422-2.844 1.422-4.267 0s-2.844-4.267-4.267-5.689c-1.422-1.422-2.844-2.844-5.689 0 0 1.422-76.8 72.533-76.8 72.533-12.8 11.378-15.644 32.711-4.267 44.089 8.533 9.956 8.533 18.489 1.422 29.867-36.978 62.578-51.2 139.378-38.4 210.489 22.756 149.333 159.289 257.422 304.356 270.222 4.267 0 4.267-1.422 4.267-5.689-2.844-9.956-5.689-21.333-9.956-31.289-1.422-4.267-2.844-5.689-7.111-5.689-122.311-15.644-236.089-106.667-256-233.244-12.8-64-1.422-132.267 29.867-189.156 1.422-4.267 7.111-2.844 9.956 0 11.378 9.956 29.867 11.378 41.244 0 0 0 82.489-64 83.911-65.422 2.844-1.422 1.422-4.267 0-5.689s-4.267-4.267-5.689-7.111c-1.422-1.422-1.422-4.267 0-5.689s38.4-32.711 38.4-32.711c7.111-4.267 8.533-12.8 4.267-17.067zM814.933 281.6c-45.511-86.756-122.311-157.867-227.556-177.778-102.4-15.644-176.356 46.933-102.4 167.822 31.289 51.2 126.578 167.822 85.333 376.889 0-91.022-7.111-223.289-95.289-332.8-8.533-12.8-32.711-18.489-44.089-5.689-11.378 11.378-21.333 22.756-27.022 34.133-76.8 115.2-1.422 246.044 46.933 300.089 83.911 93.867 72.533 187.733 72.533 187.733 143.644-189.156 206.222-398.222 44.089-533.333-38.4-31.289-61.156-66.844-64-91.022-4.267-39.822 22.756-55.467 76.8-48.356 69.689 8.533 149.333 75.378 186.311 147.911 38.4 73.956 42.667 163.556 12.8 241.778-24.178 64-73.956 118.044-135.111 150.756-7.111 4.267-9.956 5.689-14.222 14.222-7.111 14.222-14.222 27.022-21.333 39.822-4.267 7.111-2.844 11.378 9.956 7.111 92.444-34.133 169.244-105.244 206.222-196.267 36.978-89.6 34.133-196.267-9.956-283.022z" />
<glyph unicode="&#xe60c;" glyph-name="csr_comm" d="M512 960c-283.022 0-512-228.978-512-512s228.978-512 512-512 512 228.978 512 512-228.978 512-512 512zM749.511 649.956c-12.8-18.489-14.222-44.089-1.422-65.422 12.8-22.756 38.4-34.133 62.578-31.289 5.689-119.467-149.333-157.867-162.133-157.867-4.267 0-9.956 2.844-15.644 5.689s-4.267 12.8 2.844 12.8c86.756 12.8 99.556 75.378 86.756 123.733-8.533 31.289-55.467 54.044-55.467 54.044 7.111 29.867-2.844 75.378-2.844 75.378 34.133 9.956 64-1.422 85.333-17.067zM512 830.578c27.022 0 48.356-21.333 48.356-48.356s-21.333-48.356-48.356-48.356c-27.022 0-48.356 21.333-48.356 48.356s21.333 48.356 48.356 48.356zM456.533 753.778c9.956-19.911 31.289-34.133 55.467-34.133 25.6 0 48.356 15.644 58.311 38.4 106.667-55.467 62.578-209.067 55.467-219.022-2.844-4.267-7.111-7.111-12.8-11.378-5.689-2.844-12.8 2.844-9.956 8.533 32.711 81.067-15.644 123.733-64 136.533-31.289 8.533-73.956-21.333-73.956-21.333-22.756 21.333-66.844 34.133-66.844 34.133 8.533 38.4 34.133 58.311 58.311 68.267zM490.667 591.644c2.844-4.267 2.844-9.956 2.844-15.644 0-7.111-8.533-9.956-12.8-4.267-54.044 69.689-115.2 48.356-149.333 12.8-22.756-22.756-18.489-75.378-18.489-75.378-29.867-9.956-64-41.244-64-41.244-27.022 25.6-31.289 56.889-28.444 83.911 22.756-1.422 45.511 9.956 56.889 31.289 12.8 22.756 9.956 49.778-4.267 69.689 100.978 65.422 210.489-49.778 217.6-61.156zM180.622 640c12.8 22.756 42.667 31.289 66.844 18.489 22.756-12.8 31.289-42.667 18.489-66.844-12.8-22.756-42.667-31.289-66.844-18.489s-32.711 42.667-18.489 66.844zM246.044 238.933c-22.756-12.8-52.622-5.689-66.844 18.489-12.8 22.756-5.689 52.622 18.489 66.844 22.756 12.8 52.622 5.689 66.844-18.489s5.689-54.044-18.489-66.844zM274.489 246.044c12.8 18.489 14.222 44.089 1.422 65.422-12.8 22.756-38.4 34.133-62.578 31.289-5.689 119.467 149.333 157.867 162.133 157.867 4.267 0 9.956-2.844 15.644-5.689s4.267-12.8-2.844-12.8c-86.756-12.8-99.556-75.378-86.756-123.733 8.533-31.289 55.467-54.044 55.467-54.044-7.111-29.867 2.844-75.378 2.844-75.378-34.133-9.956-64 1.422-85.333 17.067zM512 65.422c-27.022 0-48.356 21.333-48.356 48.356s21.333 48.356 48.356 48.356c27.022 0 48.356-21.333 48.356-48.356s-21.333-48.356-48.356-48.356zM567.467 142.222c-9.956 19.911-31.289 34.133-55.467 34.133-25.6 0-48.356-15.644-58.311-38.4-106.667 55.467-62.578 209.067-55.467 219.022 2.844 4.267 7.111 7.111 12.8 11.378 5.689 2.844 12.8-2.844 9.956-8.533-32.711-81.067 15.644-123.733 64-136.533 31.289-8.533 73.956 21.333 73.956 21.333 22.756-21.333 66.844-34.133 66.844-34.133-8.533-38.4-34.133-58.311-58.311-68.267zM533.333 304.356c-2.844 4.267-2.844 9.956-2.844 15.644 0 7.111 8.533 9.956 12.8 4.267 54.044-69.689 115.2-48.356 149.333-12.8 22.756 22.756 18.489 75.378 18.489 75.378 29.867 9.956 64 41.244 64 41.244 27.022-25.6 31.289-56.889 28.444-83.911-22.756 1.422-45.511-9.956-56.889-31.289-12.8-22.756-9.956-49.778 4.267-69.689-100.978-65.422-210.489 49.778-217.6 61.156zM843.378 256c-12.8-22.756-42.667-31.289-66.844-18.489-22.756 12.8-31.289 42.667-18.489 66.844 12.8 22.756 42.667 31.289 66.844 18.489s32.711-42.667 18.489-66.844zM826.311 573.156c-22.756-12.8-52.622-5.689-66.844 18.489-12.8 22.756-5.689 52.622 18.489 66.844 22.756 12.8 52.622 5.689 66.844-18.489 12.8-24.178 4.267-54.044-18.489-66.844z" />
<glyph unicode="&#xe60d;" glyph-name="csr_cust-part" d="M705.422 322.844c-4.267-5.689-9.956-9.956-17.067-9.956 0 0 0 0 0 0l-89.6 68.267c-7.111 5.689-15.644 2.844-21.333-4.267-4.267-5.689-1.422-14.222 4.267-19.911l92.444-71.111c0 0 0 0 0 0l5.689-4.267c0 0 0 0 0 0 11.378-8.533 8.533-24.178 1.422-32.711-4.267-7.111-9.956-11.378-17.067-11.378 0 0 0 0 0 0-1.422 1.422-115.2 92.444-115.2 92.444-5.689 4.267-15.644 4.267-19.911-2.844-4.267-5.689-4.267-15.644 2.844-19.911l98.133-78.222c0 0 0 0 0 0 0-1.422 5.689-11.378-2.844-27.022-4.267-7.111-17.067-11.378-21.333-9.956l-96.711 76.8c-5.689 4.267-15.644 4.267-19.911-2.844-4.267-5.689-4.267-15.644 2.844-19.911 0 0 78.222-62.578 78.222-62.578 2.844-8.533 1.422-15.644-4.267-22.756-4.267-7.111-11.378-9.956-18.489-9.956-4.267 0-9.956 1.422-14.222 4.267 0 0-135.111 86.756-203.378 152.178l-4.267 4.267c-19.911 18.489-51.2 48.356-54.044 79.644 0 2.844-1.422 5.689-2.844 8.533-5.689 7.111-17.067 17.067-25.6 25.6 0 0 0 0 0 0l92.444 132.267c0 0 0 0 0 0l5.689-4.267c4.267-4.267 11.378-4.267 17.067 0 11.378 7.111 28.444 17.067 48.356 24.178 0 0 0 0 0 0 2.844 0 7.111 0 11.378 0 14.222 0 32.711-1.422 51.2-2.844 0 0 0 0 0 0-18.489-17.067-88.178-102.4-91.022-105.244 0 0 0 0 0 0 1.422-2.844 36.978-49.778 65.422-21.333 27.022 25.6 75.378 71.111 85.333 79.644 0 0 0 0 0 0-2.844-4.267-4.267-8.533-5.689-12.8-1.422-17.067 8.533-27.022 18.489-34.133l160.711-123.733c8.533-5.689 11.378-22.756 2.844-34.133zM1024 448c0-283.022-228.978-512-512-512s-512 228.978-512 512 228.978 512 512 512 512-228.978 512-512zM186.311 448l113.778 163.556c5.689 8.533 4.267 19.911-4.267 27.022l-39.822 28.444c-8.533 7.111-21.333 4.267-28.444-4.267l-113.778-163.556c-5.689-8.533-4.267-19.911 4.267-27.022l39.822-29.867c8.533-5.689 21.333-4.267 28.444 5.689zM812.089 438.044l-108.089 155.022c0 0 0 0 0 0l-17.067-12.8c0 0 0 0 0 0-12.8 8.533-31.289 18.489-52.622 27.022v0c-46.933 2.844-132.267-2.844-133.689-4.267 0 0 0 0 0 0-41.244 4.267-81.067 5.689-100.978 4.267-1.422 0-2.844 0-4.267-1.422-18.489-7.111-35.556-15.644-46.933-22.756 0 0 0 0 0 0-1.422 0-9.956 7.111-9.956 7.111-2.844 2.844-7.111 2.844-11.378 2.844s-7.111-2.844-9.956-5.689l-108.089-155.022c-4.267-5.689-2.844-14.222 2.844-18.489 5.689-5.689 21.333-18.489 28.444-27.022 0 0 0 0 0 0 5.689-41.244 41.244-73.956 62.578-93.867l4.267-4.267c69.689-65.422 196.267-147.911 206.222-153.6 8.533-7.111 19.911-9.956 29.867-9.956 17.067 0 32.711 8.533 42.667 22.756 4.267 5.689 7.111 11.378 8.533 18.489 0 0 0 0 0 0 1.422-1.422 4.267-1.422 5.689-1.422 19.911 0 38.4 9.956 48.356 24.178 4.267 7.111 7.111 14.222 8.533 22.756 1.422 0 2.844 0 4.267 0v0c15.644 0 31.289 8.533 42.667 24.178 12.8 18.489 14.222 39.822 5.689 56.889 0 0 0 0 0 0 7.111 4.267 12.8 9.956 18.489 15.644 5.689 8.533 8.533 18.489 9.956 28.444 0 0 0 0 0 0 18.489 17.067 38.4 41.244 41.244 71.111 0 0 0 0 0 0 7.111 7.111 31.289 28.444 32.711 29.867 0 0 0 0 0 0zM908.8 503.467l-113.778 163.556c-5.689 8.533-18.489 11.378-28.444 4.267l-39.822-29.867c-8.533-5.689-9.956-18.489-4.267-27.022l113.778-163.556c5.689-8.533 18.489-11.378 28.444-4.267l39.822 29.867c8.533 5.689 11.378 18.489 4.267 27.022z" />
<glyph unicode="&#xe60e;" glyph-name="csr_enviro" d="M512 960c-283.022 0-512-228.978-512-512s228.978-512 512-512 512 228.978 512 512c0 283.022-228.978 512-512 512zM731.022 280.178c-19.911-56.889-61.156-98.133-102.4-105.244s-81.067-9.956-98.133-32.711c-17.067-22.756-21.333-51.2-21.333-51.2s-137.956 145.067-116.622 328.533c8.533 78.222 71.111 189.156 42.667 285.867 0 0-2.844-76.8-39.822-172.089-68.267-174.933-14.222-301.511-7.111-314.311 0 0 0 0 0 0 0-1.422 0-1.422 0 0-7.111 7.111-123.733 120.889-99.556 224.711 25.6 106.667 132.267 302.933 89.6 361.244 0 0 132.267-61.156 182.044-164.978s46.933-214.756 0-278.756c-46.933-64-96.711-120.889-89.6-174.933s39.822-96.711 39.822-96.711 1.422 105.244 76.8 167.822c32.711 25.6 96.711 45.511 120.889 92.444 0 0-25.6-28.444-78.222-49.778-91.022-36.978-120.889-122.311-118.044-116.622 0 0-4.267 91.022 45.511 122.311 48.356 31.289 162.133 65.422 166.4 103.822-1.422 0 27.022-72.533 7.111-129.422z" />
<glyph unicode="&#xe60f;" glyph-name="csr_gov-eth" d="M473.6 715.378c-1.422 15.644 9.956 28.444 25.6 29.867s28.444-9.956 29.867-25.6c1.422-15.644-9.956-28.444-25.6-29.867s-28.444 9.956-29.867 25.6zM1024 448c0-283.022-228.978-512-512-512s-512 228.978-512 512 228.978 512 512 512 512-228.978 512-512zM755.2 667.022c-2.844 5.689-9.956 7.111-15.644 4.267-1.422-1.422-2.844-2.844-4.267-4.267l-92.444-170.667c-2.844-5.689-1.422-11.378 4.267-15.644 5.689-2.844 11.378-1.422 15.644 4.267l83.911 153.6 83.911-153.6c2.844-5.689 9.956-7.111 15.644-4.267s7.111 9.956 4.267 15.644l-95.289 170.667zM270.222 614.4l484.978 85.333c-2.844 12.8-9.956 19.911-27.022 19.911l-76.8 4.267c-29.867 1.422-58.311 17.067-73.956 36.978-21.333 25.6-54.044 41.244-89.6 34.133-35.556-5.689-61.156-31.289-72.533-62.578-8.533-22.756-29.867-48.356-56.889-59.733l-71.111-31.289c-14.222-4.267-19.911-12.8-17.067-27.022zM180.622 395.378c5.689-2.844 11.378-1.422 15.644 4.267l83.911 153.6 83.911-153.6c2.844-5.689 9.956-7.111 15.644-4.267s7.111 9.956 4.267 15.644l-92.444 170.667c-2.844 5.689-9.956 7.111-15.644 4.267-1.422-1.422-2.844-2.844-4.267-4.267l-92.444-170.667c-5.689-7.111-4.267-12.8 1.422-15.644zM278.756 283.022c59.733 0 108.089 36.978 108.089 83.911h-216.178c0-46.933 48.356-83.911 108.089-83.911zM711.111 163.556c0 25.6-18.489 49.778-44.089 51.2l-55.467 4.267c-18.489 1.422-32.711 17.067-34.133 35.556l-39.822 371.2-51.2-8.533-38.4-362.667c-1.422-18.489-15.644-34.133-34.133-35.556l-55.467-4.267c-27.022-1.422-45.511-25.6-45.511-51.2v-18.489h398.222v18.489zM853.333 450.844h-216.178c0-45.511 48.356-83.911 108.089-83.911 59.733 1.422 108.089 38.4 108.089 83.911z" />
<glyph unicode="&#xe610;" glyph-name="csr_reporting" d="M475.022 460.8l-139.378-139.378-99.556 99.556 35.556 35.556 65.422-65.422 105.244 105.244 32.711-35.556zM583.111 580.267h135.111l-93.867 86.756-42.667 38.4v-125.156zM540.444 706.844h-183.467v-136.533c83.911-1.422 150.756-68.267 150.756-152.178s-66.844-150.756-150.756-152.178v-58.311h368.356v331.378h-184.889v167.822zM1024 448c0-283.022-228.978-512-512-512s-512 228.978-512 512 228.978 512 512 512 512-228.978 512-512zM766.578 593.067l-167.822 156.444h-284.444v-183.467c-65.422-17.067-112.356-76.8-112.356-146.489s46.933-129.422 112.356-146.489v-106.667h452.267v426.667z" />
<glyph unicode="&#xe611;" glyph-name="csr_workplace" d="M455.111 317.156c-7.111-31.289-36.978-49.778-68.267-42.667s-49.778 36.978-42.667 68.267c7.111 31.289 36.978 49.778 68.267 42.667s49.778-36.978 42.667-68.267zM665.6 644.267c-19.911-5.689-32.711-25.6-28.444-45.511 5.689-19.911 25.6-32.711 45.511-28.444 19.911 5.689 32.711 25.6 28.444 45.511s-25.6 32.711-45.511 28.444zM548.978 295.822c-18.489-82.489-100.978-135.111-183.467-115.2-82.489 18.489-135.111 100.978-115.2 183.467 18.489 82.489 100.978 135.111 183.467 115.2 82.489-18.489 135.111-100.978 115.2-183.467zM425.244 440.889c-61.156 14.222-122.311-24.178-136.533-85.333s24.178-122.311 85.333-136.533c61.156-14.222 122.311 24.178 136.533 85.333 14.222 62.578-24.178 123.733-85.333 136.533zM773.689 631.467c12.8-55.467-19.911-109.511-75.378-123.733-55.467-12.8-109.511 19.911-123.733 75.378-12.8 55.467 19.911 109.511 75.378 123.733 55.467 12.8 110.933-21.333 123.733-75.378zM748.089 625.778c-9.956 41.244-51.2 65.422-92.444 55.467s-65.422-51.2-55.467-92.444c9.956-41.244 51.2-65.422 92.444-55.467s65.422 51.2 55.467 92.444zM1024 448c0-283.022-228.978-512-512-512s-512 228.978-512 512 228.978 512 512 512 512-228.978 512-512zM568.889 248.889c5.689 12.8 9.956 25.6 14.222 39.822 2.844 14.222 4.267 28.444 4.267 41.244l35.556 19.911-27.022 89.6-41.244-2.844c-15.644 22.756-36.978 42.667-61.156 56.889v41.244l-91.022 21.333-17.067-36.978c-28.444-2.844-55.467-11.378-79.644-24.178l-35.556 18.489-64-68.267 24.178-34.133c-5.689-12.8-9.956-25.6-14.222-39.822-2.844-14.222-4.267-28.444-4.267-41.244l-35.556-19.911 27.022-89.6 41.244 4.267c15.644-22.756 36.978-42.667 61.156-56.889l-1.422-41.244 91.022-21.333 17.067 36.978c28.444 2.844 55.467 11.378 79.644 24.178l35.556-21.333 64 68.267-22.756 35.556zM847.644 587.378l-31.289 14.222c0 12.8 0 27.022-4.267 39.822-2.844 12.8-8.533 25.6-14.222 36.978l21.333 25.6-41.244 42.667-27.022-19.911c-22.756 14.222-48.356 22.756-76.8 22.756l-12.8 31.289-58.311-14.222 4.267-34.133c-24.178-12.8-44.089-31.289-56.889-55.467l-32.711 5.689-17.067-56.889 31.289-14.222c0-12.8 0-27.022 4.267-39.822 2.844-12.8 8.533-25.6 14.222-36.978l-21.333-25.6 41.244-42.667 27.022 19.911c22.756-14.222 48.356-22.756 76.8-22.756l12.8-31.289 58.311 14.222-4.267 34.133c24.178 12.8 44.089 31.289 56.889 55.467l32.711-5.689 17.067 56.889z" />
<glyph unicode="&#xe612;" glyph-name="custlogin" d="M512 960c-283.022 0-512-228.978-512-512s228.978-512 512-512 512 228.978 512 512-228.978 512-512 512zM238.933 503.467h226.133v110.933l200.533-166.4-200.533-167.822v110.933h-226.133v112.356zM782.222 246.044c0-38.4-31.289-69.689-69.689-69.689h-403.911c-38.4 0-69.689 31.289-69.689 69.689v73.956h56.889v-73.956c0-7.111 5.689-12.8 12.8-12.8h403.911c7.111 0 12.8 5.689 12.8 12.8v403.911c0 7.111-5.689 12.8-12.8 12.8h-403.911c-7.111 0-12.8-5.689-12.8-12.8v-73.956h-56.889v73.956c0 38.4 31.289 69.689 69.689 69.689h403.911c38.4 0 69.689-31.289 69.689-69.689v-403.911z" />
<glyph unicode="&#xe613;" glyph-name="document" d="M566.044 712.533l42.667-39.822 93.867-86.756h-136.533v126.578zM1024 448c0-283.022-228.978-512-512-512s-512 228.978-512 512 228.978 512 512 512 512-228.978 512-512zM750.933 597.333l-167.822 157.867h-284.444v-584.533h453.689v426.667zM524.8 712.533h-184.889v-500.622h369.778v331.378h-184.889v169.244z" />
<glyph unicode="&#xe614;" glyph-name="downloads" d="M1024 448c0 281.6-228.978 512-512 512s-512-230.4-512-512c0-281.6 228.978-512 512-512s512 230.4 512 512zM819.2 467.911l-307.2-368.356-307.2 368.356h204.8v287.289h204.8v-285.867h204.8z" />
<glyph unicode="&#xe615;" glyph-name="email" d="M512 960c-283.022 0-512-228.978-512-512s228.978-512 512-512c283.022 0 512 228.978 512 512s-228.978 512-512 512zM765.156 632.889l-254.578-210.489-52.622 44.089c0 0 0 0 0 0l-199.111 166.4h506.311zM246.044 584.533l164.978-137.956-164.978-153.6v291.556zM280.178 264.533l164.978 153.6 52.622-44.089c4.267-2.844 8.533-4.267 12.8-4.267s8.533 1.422 12.8 4.267l52.622 44.089 166.4-155.022h-462.222zM777.956 291.556l-166.4 155.022 166.4 137.956v-292.978z" />
<glyph unicode="&#xe616;" glyph-name="extlink" d="M270.222 689.778h180.622v-59.733h-120.889v-362.667h362.667v120.889h61.156v-182.044h-483.556v483.556zM610.133 604.444l-187.733-187.733 56.889-56.889 189.156 186.311 85.333-85.333v228.978h-228.978l85.333-85.333z" />
<glyph unicode="&#xe617;" glyph-name="globe" d="M513.422 960c-283.022 1.422-512-227.556-513.422-510.578s227.556-512 510.578-513.422c283.022-1.422 512 227.556 513.422 510.578s-227.556 512-510.578 513.422zM611.556 391.111c-22.756-1.422-45.511 1.422-68.267 1.422-27.022 0-49.778 8.533-71.111 25.6-18.489 14.222-41.244 14.222-64 12.8-49.778-1.422-93.867-15.644-128-54.044-31.289-35.556-36.978-76.8-21.333-120.889 11.378-32.711 39.822-44.089 71.111-46.933 25.6-2.844 51.2-2.844 76.8-4.267 5.689 0 11.378 0 17.067 0 17.067 0 28.444-8.533 32.711-25.6 12.8-36.978 24.178-72.533 25.6-112.356 0-15.644 5.689-31.289 9.956-46.933-34.133 1.422-69.689 5.689-102.4 17.067-166.4 55.467-270.222 169.244-301.511 342.756-18.489 108.089 4.267 211.911 68.267 305.778 2.844 4.267 9.956 7.111 15.644 8.533 8.533 1.422 14.222-1.422 14.222-12.8 0-4.267 0-9.956 1.422-14.222s5.689-12.8 8.533-12.8c5.689 0 12.8 2.844 17.067 7.111 4.267 5.689 7.111 12.8 8.533 19.911 4.267 21.333 15.644 36.978 31.289 51.2 1.422 1.422 4.267 2.844 5.689 5.689 24.178 21.333 22.756 36.978-9.956 49.778 19.911 12.8 36.978 24.178 55.467 35.556 1.422 1.422 9.956-2.844 9.956-5.689 1.422-4.267 1.422-9.956-1.422-14.222-1.422-2.844-7.111-5.689-9.956-8.533s-4.267-7.111-4.267-9.956c1.422-2.844 7.111-4.267 9.956-4.267 7.111 1.422 14.222 2.844 21.333 5.689 8.533 2.844 15.644 5.689 24.178 8.533 9.956 2.844 15.644-1.422 17.067-11.378 1.422-5.689 0-9.956-7.111-12.8-11.378-2.844-24.178-7.111-35.556-11.378-8.533-4.267-17.067-8.533-22.756-15.644-11.378-12.8-5.689-29.867 11.378-32.711 34.133-4.267 66.844-1.422 95.289 18.489 18.489 12.8 34.133 31.289 51.2 46.933 2.844 2.844 5.689 7.111 7.111 11.378 12.8 24.178 4.267 39.822-22.756 41.244-7.111 0-14.222 1.422-21.333 2.844-17.067 2.844-21.333 7.111-21.333 24.178 0 2.844 0 5.689 0 9.956 85.333 21.333 167.822 17.067 251.733-12.8-14.222-32.711-8.533-66.844-7.111-99.556 0-9.956 1.422-22.756-4.267-29.867-11.378-14.222-24.178-31.289-42.667-35.556-5.689-1.422-12.8 0-18.489 0-17.067 2.844-32.711 5.689-49.778 8.533-32.711 5.689-79.644-32.711-73.956-78.222 0-4.267 2.844-8.533 4.267-11.378 11.378-11.378 41.244-7.111 48.356 8.533 2.844 5.689 2.844 12.8 5.689 18.489 1.422 5.689 2.844 11.378 7.111 14.222 5.689 4.267 12.8 7.111 19.911 5.689 4.267-1.422 8.533-8.533 11.378-14.222 1.422-4.267 0-11.378-1.422-15.644-8.533-24.178-24.178-42.667-49.778-46.933-5.689-1.422-12.8 1.422-17.067 4.267-7.111 5.689-15.644 7.111-22.756 2.844-5.689-2.844-11.378-7.111-17.067-11.378-12.8-11.378-28.444-18.489-45.511-18.489-4.267 0-12.8-2.844-14.222-5.689-1.422-4.267 1.422-11.378 4.267-15.644 4.267-7.111 11.378-12.8 8.533-24.178-9.956 0-19.911 0-29.867 0-11.378 0-18.489-7.111-21.333-17.067s-5.689-19.911-8.533-31.289c-1.422-7.111 1.422-14.222 9.956-14.222 12.8-1.422 27.022-2.844 39.822-1.422 4.267 0 9.956 4.267 14.222 7.111 7.111 7.111 12.8 15.644 18.489 22.756 19.911 21.333 48.356 17.067 62.578-7.111 4.267-7.111 9.956-14.222 15.644-21.333 2.844-2.844 7.111-4.267 9.956-4.267 1.422 0 4.267 5.689 2.844 9.956-1.422 8.533-5.689 17.067-8.533 24.178-2.844 8.533-5.689 17.067-9.956 25.6 11.378 2.844 17.067-2.844 21.333-9.956 4.267-9.956 8.533-21.333 14.222-31.289 4.267-8.533 11.378-15.644 18.489-25.6 9.956 17.067 17.067 32.711 25.6 46.933 14.222 27.022 36.978 38.4 66.844 29.867 4.267-1.422 11.378-4.267 9.956-7.111 0-4.267-2.844-11.378-7.111-14.222-5.689-4.267-14.222-7.111-21.333-9.956-11.378-5.689-22.756-9.956-32.711-17.067-4.267-2.844-9.956-11.378-8.533-12.8 2.844-5.689 9.956-9.956 15.644-11.378 7.111-1.422 15.644 0 22.756 0 12.8 0 17.067-5.689 17.067-18.489-1.422-25.6-1.422-27.022-28.444-29.867zM654.222 44.089c5.689 4.267 12.8 9.956 18.489 14.222s12.8 8.533 19.911 12.8c14.222 7.111 17.067 17.067 9.956 31.289-11.378 24.178-9.956 29.867 9.956 48.356 31.289 29.867 51.2 66.844 65.422 108.089 1.422 4.267 1.422 9.956 2.844 17.067-14.222-2.844-27.022-4.267-41.244-5.689-9.956 0-21.333 0-29.867 2.844-41.244 12.8-72.533 54.044-71.111 92.444 0 4.267 1.422 9.956 4.267 15.644 19.911-17.067 41.244-27.022 55.467-48.356 9.956-15.644 22.756-28.444 35.556-39.822 4.267-4.267 12.8-5.689 19.911-4.267 18.489 4.267 29.867 15.644 34.133 35.556 2.844 11.378 7.111 22.756 12.8 34.133 7.111 14.222 4.267 28.444 4.267 44.089-12.8 1.422-22.756 0-32.711-9.956-8.533-8.533-17.067-8.533-27.022-1.422-1.422 1.422-4.267 2.844-4.267 4.267-2.844 7.111-5.689 14.222-8.533 22.756 7.111 1.422 14.222 5.689 21.333 5.689 7.111 1.422 14.222-1.422 21.333 0 15.644 1.422 32.711 2.844 46.933 8.533 18.489 7.111 35.556 7.111 51.2-4.267 11.378-7.111 21.333-17.067 32.711-24.178 5.689-2.844 14.222-8.533 18.489-5.689 4.267 1.422 8.533 11.378 8.533 17.067 1.422 18.489 1.422 36.978 1.422 55.467 0 4.267 1.422 8.533 2.844 12.8 1.422 0 1.422 0 2.844 0 5.689-76.8-5.689-150.756-39.822-219.022-52.622-108.089-133.689-182.044-246.044-220.444z" />
<glyph unicode="&#xe618;" glyph-name="investors" d="M512 960c-283.022 0-512-230.4-512-512s228.978-512 512-512c283.022 0 512 228.978 512 512 0 281.6-228.978 512-512 512zM797.867 162.133h-571.733v22.756h573.156v-22.756zM260.267 214.756v68.267l99.556 99.556v-167.822h-99.556zM393.956 214.756v201.956l86.756 86.756 12.8-12.8v-275.911h-99.556zM524.8 217.6v241.778l7.111-7.111c8.533-8.533 21.333-14.222 34.133-14.222s25.6 5.689 34.133 14.222l24.178 24.178v-260.267h-99.556zM659.911 214.756v294.4l92.444 85.333v-379.733h-92.444zM743.822 642.844l-159.289-159.289c-4.267-4.267-11.378-7.111-18.489-7.111s-12.8 2.844-18.489 7.111l-68.267 68.267-217.6-216.178-35.556 35.556 234.667 234.667c9.956 9.956 25.6 9.956 35.556 0l68.267-68.267 142.222 142.222-49.778 55.467h139.378v-143.644l-52.622 51.2z" />
<glyph unicode="&#xe619;" glyph-name="iot_audio" d="M512 960c-283.022 0-512-228.978-512-512s228.978-512 512-512 512 228.978 512 512c0 283.022-228.978 512-512 512zM348.444 796.444c2.844 1.422 62.578 45.511 163.556 45.511s159.289-42.667 162.133-45.511c8.533-7.111 11.378-19.911 4.267-28.444-4.267-5.689-9.956-8.533-15.644-8.533-4.267 0-8.533 1.422-12.8 4.267 0 0-49.778 36.978-136.533 36.978s-137.956-36.978-139.378-36.978c-8.533-7.111-21.333-4.267-28.444 4.267-7.111 9.956-5.689 22.756 2.844 28.444zM512 719.644c-62.578 0-96.711-25.6-98.133-25.6-8.533-7.111-21.333-4.267-28.444 4.267s-5.689 21.333 4.267 28.444c1.422 1.422 45.511 34.133 122.311 34.133s119.467-32.711 120.889-34.133c8.533-7.111 9.956-19.911 2.844-28.444-2.844-7.111-9.956-8.533-15.644-8.533-4.267 0-8.533 1.422-12.8 4.267 0 0-34.133 25.6-95.289 25.6zM588.8 627.2c-4.267-4.267-9.956-7.111-15.644-7.111-4.267 0-8.533 1.422-12.8 4.267 0 0-19.911 15.644-46.933 15.644-28.444 0-49.778-15.644-49.778-15.644-8.533-7.111-21.333-5.689-28.444 4.267-7.111 8.533-5.689 21.333 4.267 28.444 1.422 1.422 32.711 24.178 75.378 24.178s72.533-24.178 73.956-25.6c5.689-5.689 7.111-18.489 0-28.444zM512 56.889c-146.489 0-210.489 91.022-210.489 91.022s9.956 109.511 108.089 157.867c42.667-36.978 102.4-38.4 102.4-38.4s59.733 1.422 102.4 38.4c99.556-48.356 108.089-157.867 108.089-157.867s-64-91.022-210.489-91.022zM398.222 413.867c0 62.578 51.2 113.778 113.778 113.778s113.778-51.2 113.778-113.778-51.2-113.778-113.778-113.778-113.778 52.622-113.778 113.778zM722.489 386.844c0-9.956-8.533-18.489-18.489-18.489h-27.022c-1.422 0-2.844 0-4.267 0l-8.533 4.267c-2.844 2.844-5.689 8.533-5.689 12.8v52.622c-11.378 69.689-72.533 123.733-146.489 123.733s-135.111-54.044-146.489-123.733v-52.622c0-9.956-8.533-18.489-18.489-18.489h-27.022c-9.956 0-18.489 8.533-18.489 18.489v55.467c0 9.956 8.533 18.489 18.489 18.489h27.022c1.422 0 1.422 0 2.844 0 19.911 71.111 85.333 122.311 162.133 122.311s142.222-52.622 162.133-122.311c1.422 0 1.422 0 2.844 0h27.022c9.956 0 18.489-8.533 18.489-18.489v-54.044z" />
<glyph unicode="&#xe61a;" glyph-name="iot_automotive" d="M674.133 322.844c9.956 0 18.489 8.533 18.489 18.489 0 2.844 0 4.267-1.422 7.111l-8.533-12.8-17.067 12.8 8.533 12.8c0 0 0 0-1.422 0-9.956 0-18.489-8.533-18.489-18.489s9.956-19.911 19.911-19.911zM472.178 611.556c-7.111-2.844-14.222-7.111-21.333-9.956-14.222-7.111-29.867-14.222-44.089-21.333 7.111-2.844 9.956-17.067 5.689-24.178 22.756-1.422 48.356-1.422 69.689 0 49.778 2.844 96.711 5.689 137.956 8.533l7.111 58.311c-17.067 0-32.711 1.422-48.356 1.422-54.044 0-89.6-4.267-106.667-12.8zM674.133 482.133c-73.956 0-133.689-59.733-133.689-133.689s59.733-133.689 133.689-133.689 133.689 59.733 133.689 133.689-59.733 133.689-133.689 133.689zM568.889 341.333v7.111h1.422l-1.422-7.111zM574.578 368.356l-4.267 1.422 2.844 12.8 5.689-1.422-4.267-12.8zM702.578 450.844l12.8-4.267-4.267-12.8-12.8 4.267 4.267 12.8zM674.133 453.689c2.844 0 7.111 0 7.111 0v-14.222c0 0-1.422 0-1.422 0s-1.422 0-1.422 0h-1.422c-2.844 0-5.689 0-5.689 0v14.222c-4.267 0 0 0 2.844 0zM674.133 374.044c2.844 0 7.111 0 9.956-1.422l52.622 71.111 17.067-11.378-52.622-71.111c4.267-5.689 5.689-11.378 5.689-18.489 0-17.067-14.222-32.711-32.711-32.711-17.067 0-32.711 14.222-32.711 32.711 0 17.067 15.644 31.289 32.711 31.289zM645.689 450.844l4.267-12.8-12.8-4.267-4.267 12.8 12.8 4.267zM593.067 401.067c-1.422-2.844-4.267-5.689-4.267-5.689l-7.111 5.689c0 0 1.422 2.844 4.267 5.689 1.422 2.844 4.267 5.689 4.267 5.689l8.533-5.689c-1.422 0-4.267-2.844-5.689-5.689zM604.444 428.089l9.956 8.533 7.111-9.956-11.378-7.111-5.689 8.533zM728.178 261.689h-109.511v25.6h109.511v-25.6zM759.467 395.378c0 0-1.422 2.844-4.267 5.689-1.422 2.844-4.267 5.689-4.267 5.689l8.533 5.689c0 0 1.422-2.844 4.267-5.689 1.422-2.844 4.267-5.689 4.267-5.689l-8.533-5.689zM779.378 348.444v0zM775.111 382.578l2.844-12.8-4.267-1.422-4.267 12.8 5.689 1.422zM512 960c-283.022 0-512-228.978-512-512s228.978-512 512-512 512 228.978 512 512c0 283.022-228.978 512-512 512zM318.578 376.889c-31.289 0-56.889 25.6-56.889 56.889s25.6 56.889 56.889 56.889 56.889-25.6 56.889-56.889c0-31.289-25.6-56.889-56.889-56.889zM674.133 187.733c-88.178 0-160.711 72.533-160.711 160.711s72.533 160.711 160.711 160.711c88.178 0 160.711-72.533 160.711-160.711s-72.533-160.711-160.711-160.711zM867.556 462.222c-1.422-7.111-7.111-17.067-17.067-27.022-31.289 65.422-99.556 110.933-177.778 110.933-89.6 0-166.4-61.156-189.156-143.644h-93.867c4.267 11.378 7.111 24.178 5.689 36.978-2.844 39.822-35.556 71.111-75.378 72.533-44.089 1.422-81.067-34.133-81.067-78.222 0-11.378 2.844-21.333 7.111-31.289-32.711 0-66.844 4.267-82.489 28.444-14.222 22.756-2.844 48.356 5.689 65.422 1.422 1.422 2.844 2.844 2.844 5.689 18.489-2.844 39.822-4.267 46.933 8.533 9.956 17.067 2.844 19.911-21.333 18.489 18.489 14.222 44.089 22.756 68.267 31.289 15.644 5.689 31.289 8.533 46.933 12.8 21.333 5.689 41.244 9.956 59.733 17.067 22.756 8.533 44.089 19.911 66.844 31.289 7.111 4.267 14.222 7.111 21.333 11.378 21.333 9.956 58.311 15.644 115.2 15.644v0c42.667 0 98.133-2.844 137.956-7.111 2.844 2.844 9.956 8.533 17.067 11.378 5.689 2.844 11.378 2.844 17.067 4.267 4.267 0 7.111-2.844 8.533-5.689l2.844-15.644c4.267-1.422 7.111-1.422 9.956-2.844 29.867-14.222 58.311-44.089 76.8-78.222h-21.333c-4.267 0-5.689-4.267-4.267-7.111l5.689-17.067c0-1.422 1.422-1.422 2.844-2.844 9.956-5.689 21.333-9.956 34.133-12.8 1.422-8.533 0-15.644 1.422-24.178 0-11.378 5.689-19.911 2.844-28.444zM750.933 608.711c-8.533 4.267-18.489 5.689-35.556 7.111-18.489 2.844-46.933 7.111-72.533 8.533l-2.844-56.889c59.733 4.267 100.978 7.111 103.822 7.111h2.844c4.267 1.422 8.533 4.267 11.378 7.111s4.267 7.111 4.267 11.378c0 2.844-1.422 5.689-2.844 8.533-2.844 4.267-5.689 7.111-8.533 7.111z" />
<glyph unicode="&#xe61b;" glyph-name="iot_beacons_tags" d="M723.911 192c0-21.333-66.844-54.044-186.311-58.311h-48.356c-122.311 4.267-189.156 36.978-189.156 58.311 0 7.111 5.689 14.222 19.911 21.333 8.533-48.356 155.022-54.044 173.511-54.044h38.4c27.022 1.422 162.133 7.111 170.667 54.044 14.222-7.111 21.333-15.644 21.333-21.333zM593.067 630.044c0 45.511-36.978 81.067-81.067 81.067s-81.067-36.978-81.067-81.067 36.978-81.067 81.067-81.067 81.067 36.978 81.067 81.067zM1024 448c0-283.022-228.978-512-512-512s-512 228.978-512 512c0 283.022 228.978 512 512 512s512-228.978 512-512zM354.133 630.044c0-120.889 157.867-399.644 157.867-399.644s157.867 278.756 157.867 399.644c0 86.756-71.111 157.867-157.867 157.867s-157.867-69.689-157.867-157.867zM750.933 192c0 38.4-51.2 62.578-157.867 75.378 0 0-1.422 0-1.422 0s-1.422 0-1.422 0c0 0-1.422 0-1.422 0s-1.422 0-1.422 0c0 0 0 0 0 0s-1.422 0-1.422-1.422c0 0 0 0 0 0-1.422-1.422-2.844-1.422-4.267-2.844 0 0 0 0 0 0s-1.422-1.422-1.422-1.422c0 0 0 0 0-1.422 0 0 0-1.422-1.422-1.422 0 0 0-1.422 0-1.422s0-1.422 0-1.422c0 0 0 0 0 0s0 0 0 0 0-1.422 0-1.422c0 0 0-1.422 0-1.422s0-1.422 0-1.422c0 0 0-1.422 0-1.422s0-1.422 0-1.422c0 0 0-1.422 0-1.422s0-1.422 1.422-1.422c0 0 0 0 0-1.422 0 0 0 0 1.422-1.422 0 0 0 0 1.422-1.422 0 0 1.422 0 1.422-1.422 0 0 0 0 1.422-1.422 0 0 1.422 0 1.422 0s1.422 0 1.422 0c0 0 1.422 0 1.422 0s0 0 1.422 0c51.2-7.111 86.756-12.8 86.756-22.756-2.844-8.533-48.356-29.867-143.644-32.711h-38.4c-98.133 2.844-143.644 24.178-146.489 31.289 0 8.533 36.978 15.644 81.067 22.756 0 0 1.422 0 1.422 0s1.422 0 1.422 0c0 0 1.422 0 1.422 0s1.422 0 1.422 0c0 0 0 0 1.422 1.422 0 0 1.422 0 1.422 1.422 0 0 0 0 1.422 1.422 0 0 0 0 1.422 1.422 0 0 0 0 0 1.422 0 0 0 1.422 0 1.422s0 1.422 0 1.422c0 0 0 1.422 0 1.422s0 1.422 0 1.422c0 0 0 1.422 0 1.422s0 1.422 0 1.422c0 0 0 1.422 0 1.422s0 0 0 0 0 0 0 0 0 0 0 1.422c0 0 0 1.422 0 1.422s0 0 0 1.422c0 0 0 1.422-1.422 1.422 0 0 0 0 0 1.422 0 0 0 1.422-1.422 1.422 0 0 0 0 0 0s-1.422 1.422-1.422 1.422c0 0 0 0-1.422 0 0 0-1.422 0-1.422 1.422 0 0-1.422 0-1.422 0s-1.422 0-1.422 0c0 0-1.422 0-1.422 0s0 0-1.422 0c0 0-1.422 0-1.422 0s0 0-1.422 0c-102.4-12.8-152.178-36.978-152.178-75.378 0-54.044 112.356-82.489 216.178-85.333h49.778c99.556 4.267 210.489 32.711 210.489 86.756z" />
<glyph unicode="&#xe61c;" glyph-name="iot_health_fitness" d="M512 641.422c-108.089 0-194.844-88.178-194.844-194.844s86.756-196.267 194.844-196.267 194.844 88.178 194.844 194.844-86.756 196.267-194.844 196.267zM561.778 587.378c14.222 5.689 29.867-1.422 35.556-14.222 5.689-14.222-1.422-29.867-14.222-35.556-14.222-5.689-29.867 1.422-35.556 14.222-5.689 14.222 1.422 29.867 14.222 35.556zM617.244 479.289l-52.622-21.333c-7.111-2.844-14.222 0-17.067 7.111l-11.378 28.444-17.067-35.556 51.2-22.756c4.267-1.422 7.111-5.689 8.533-9.956 0-4.267-1.422-9.956-5.689-12.8l-55.467-42.667c-5.689-4.267-14.222-2.844-18.489 2.844s-2.844 14.222 2.844 18.489l36.978 28.444-31.289 11.378-48.356-105.244c0-1.422-1.422-2.844-2.844-2.844-1.422-2.844-4.267-4.267-7.111-5.689s-7.111-1.422-11.378 0c-7.111 2.844-9.956 11.378-5.689 17.067l1.422 1.422c0 0 0 0 0 0l82.489 179.2-22.756 8.533-17.067-38.4c-2.844-7.111-11.378-9.956-17.067-7.111-7.111 2.844-9.956 11.378-7.111 17.067l22.756 51.2c2.844 7.111 9.956 9.956 17.067 7.111l52.622-19.911c2.844-1.422 5.689-4.267 7.111-7.111l17.067-39.822 39.822 17.067c7.111 2.844 14.222 0 17.067-7.111 1.422-7.111-1.422-14.222-8.533-17.067zM512 960c-283.022 0-512-228.978-512-512s228.978-512 512-512 512 228.978 512 512c0 283.022-228.978 512-512 512zM371.2 749.511c2.844 14.222 15.644 22.756 29.867 22.756h223.289c14.222 0 25.6-9.956 29.867-22.756l19.911-79.644c-44.089 35.556-98.133 55.467-159.289 55.467s-116.622-21.333-160.711-58.311h-1.422l18.489 82.489zM652.8 146.489c-2.844-14.222-15.644-22.756-29.867-22.756h-221.867c-14.222 0-25.6 9.956-29.867 22.756l-19.911 79.644c44.089-35.556 98.133-55.467 159.289-55.467s116.622 21.333 160.711 58.311h1.422l-19.911-82.489zM512 211.911c-129.422 0-234.667 105.244-234.667 234.667s105.244 234.667 234.667 234.667c129.422 0 234.667-105.244 234.667-234.667s-105.244-234.667-234.667-234.667z" />
<glyph unicode="&#xe61d;" glyph-name="iot_home_automation" d="M497.778 388.267v-8.533h-9.956c-8.533 0-14.222 2.844-17.067 9.956-1.422 5.689-1.422 11.378 2.844 15.644 2.844 2.844 5.689 4.267 9.956 4.267 1.422 0 4.267 0 5.689-1.422 4.267-2.844 8.533-9.956 8.533-19.911zM544.711 273.067h-64c-2.844 0-5.689-2.844-5.689-5.689v-4.267c0-2.844 2.844-5.689 5.689-5.689h64c2.844 0 5.689 2.844 5.689 5.689v4.267c0 2.844-2.844 5.689-5.689 5.689zM531.911 230.4h-39.822c-2.844 0-5.689-2.844-5.689-5.689v-4.267c0-2.844 2.844-5.689 5.689-5.689h39.822c2.844 0 5.689 2.844 5.689 5.689v4.267c0 2.844-2.844 5.689-5.689 5.689zM544.711 251.733h-64c-2.844 0-5.689-2.844-5.689-5.689v-4.267c0-2.844 2.844-5.689 5.689-5.689h64c2.844 0 5.689 2.844 5.689 5.689v4.267c0 2.844-2.844 5.689-5.689 5.689zM506.311 372.622v-91.022h12.8v91.022h-12.8zM512 494.933c-49.778 0-91.022-41.244-91.022-91.022 0-36.978 21.333-68.267 52.622-82.489l4.267-41.244h19.911v91.022h-9.956c-12.8 0-21.333 5.689-24.178 14.222s-1.422 18.489 5.689 24.178c5.689 5.689 15.644 7.111 24.178 4.267 9.956-4.267 14.222-14.222 14.222-27.022v-8.533h12.8v8.533c0 12.8 5.689 22.756 14.222 27.022 8.533 2.844 17.067 1.422 24.178-4.267 5.689-5.689 8.533-15.644 5.689-24.178-4.267-8.533-12.8-14.222-24.178-14.222h-14.222v-91.022h21.333l4.267 41.244c31.289 14.222 52.622 45.511 52.622 82.489-1.422 51.2-42.667 91.022-92.444 91.022zM1024 448c0-283.022-228.978-512-512-512s-512 228.978-512 512c0 283.022 228.978 512 512 512s512-228.978 512-512zM722.489 420.978c0 7.111-4.267 15.644-8.533 19.911l-12.8 11.378c-4.267 4.267-12.8 11.378-18.489 15.644l-162.133 145.067c-4.267 4.267-12.8 4.267-18.489 0l-160.711-145.067c-4.267-4.267-12.8-11.378-18.489-15.644l-12.8-11.378c-4.267-4.267-8.533-12.8-8.533-19.911v-81.067c0-7.111 0-17.067 0-24.178v-129.422c0-7.111 5.689-11.378 11.378-11.378h130.844c7.111 0 17.067 0 24.178 0h85.333c7.111 0 17.067 0 24.178 0h130.844c7.111 0 11.378 5.689 11.378 11.378v129.422c0 7.111 0 17.067 0 24.178v81.067zM830.578 440.889l-135.111 120.889c-4.267 4.267-8.533 12.8-8.533 19.911v95.289c0 7.111-5.689 11.378-11.378 11.378h-46.933c-7.111 0-11.378-5.689-11.378-11.378v-31.289c0-7.111-4.267-8.533-8.533-4.267l-88.178 76.8c-4.267 4.267-12.8 4.267-18.489 0l-308.622-277.333c-4.267-4.267-2.844-8.533 2.844-8.533h44.089c7.111 0 15.644 4.267 21.333 8.533l31.289 28.444c4.267 4.267 12.8 11.378 18.489 15.644l192 172.089c4.267 4.267 12.8 4.267 18.489 0l192-172.089c4.267-4.267 12.8-11.378 18.489-15.644l31.289-28.444c4.267-4.267 14.222-8.533 21.333-8.533h44.089c5.689 1.422 7.111 4.267 1.422 8.533zM554.667 389.689c1.422 5.689 1.422 11.378-2.844 15.644s-9.956 5.689-14.222 2.844c-8.533-2.844-11.378-9.956-11.378-19.911v-8.533h9.956c9.956 0 15.644 4.267 18.489 9.956z" />
<glyph unicode="&#xe61e;" glyph-name="iot_industrial" d="M584.533 406.756c-54.044 0-98.133-44.089-98.133-98.133s44.089-98.133 98.133-98.133c54.044 0 98.133 44.089 98.133 98.133s-44.089 98.133-98.133 98.133zM584.533 234.667c-41.244 0-73.956 32.711-73.956 73.956s32.711 73.956 73.956 73.956 73.956-32.711 73.956-73.956c0-39.822-32.711-73.956-73.956-73.956zM433.778 345.6c0-22.756-18.489-41.244-41.244-41.244s-41.244 18.489-41.244 41.244c0 22.756 18.489 41.244 41.244 41.244s41.244-18.489 41.244-41.244zM512 960c-283.022 0-512-228.978-512-512s228.978-512 512-512 512 228.978 512 512c0 283.022-228.978 512-512 512zM512 137.956c-172.089 0-310.044 139.378-310.044 310.044s137.956 310.044 310.044 310.044 310.044-137.956 310.044-310.044-137.956-310.044-310.044-310.044zM668.444 612.978h-325.689c-17.067 0-31.289-14.222-31.289-31.289v-96.711c0-17.067 14.222-31.289 31.289-31.289h325.689c17.067 0 31.289 14.222 31.289 31.289v96.711c0 17.067-14.222 31.289-31.289 31.289zM567.467 557.511l8.533-2.844-2.844-21.333-7.111-5.689-1.422 1.422 2.844 28.444zM600.178 530.489l4.267-4.267-4.267-4.267h-27.022l-4.267 4.267 4.267 4.267h27.022zM463.644 564.622h31.289l-4.267-8.533h-25.6l-8.533 2.844c2.844 2.844 4.267 5.689 7.111 5.689zM457.956 557.511l8.533-2.844-2.844-21.333-7.111-5.689-1.422 2.844 2.844 27.022zM453.689 523.378l2.844 1.422 5.689-5.689-1.422-19.911-8.533-2.844 1.422 27.022zM408.178 564.622h32.711l-4.267-8.533h-25.6l-8.533 2.844c1.422 2.844 2.844 5.689 5.689 5.689zM402.489 557.511l8.533-2.844-2.844-21.333-7.111-5.689-1.422 1.422 2.844 28.444zM398.222 523.378l2.844 1.422 5.689-5.689-1.422-19.911-8.533-2.844 1.422 27.022zM354.133 564.622h31.289l-4.267-8.533h-25.6l-8.533 2.844c1.422 2.844 4.267 5.689 7.111 5.689zM347.022 557.511l8.533-2.844-1.422-21.333-7.111-5.689-1.422 1.422 1.422 28.444zM344.178 523.378l2.844 1.422 5.689-5.689-1.422-19.911-9.956-2.844 2.844 27.022zM345.6 487.822c-2.844 0-4.267 2.844-4.267 5.689l8.533 2.844h25.6l2.844-8.533h-32.711zM385.422 493.511c-1.422-2.844-2.844-4.267-5.689-5.689l-2.844 8.533 2.844 22.756 7.111 5.689 1.422-1.422-2.844-29.867zM389.689 530.489l-2.844-1.422-5.689 4.267 2.844 22.756 4.267 8.533c2.844 0 4.267-2.844 4.267-5.689l-2.844-28.444zM401.067 487.822c-2.844 0-4.267 2.844-4.267 5.689l8.533 2.844h25.6l2.844-8.533h-32.711zM440.889 493.511c-1.422-2.844-2.844-4.267-5.689-5.689l-2.844 8.533 2.844 22.756 7.111 5.689 1.422-1.422-2.844-29.867zM443.733 530.489l-2.844-2.844-4.267 5.689 2.844 22.756 4.267 8.533c2.844 0 4.267-2.844 4.267-5.689l-4.267-28.444zM455.111 487.822c-2.844 0-4.267 2.844-4.267 5.689l8.533 2.844h25.6l2.844-8.533h-32.711zM494.933 493.511c-1.422-2.844-2.844-4.267-5.689-5.689l-2.844 8.533 2.844 22.756 7.111 5.689 1.422-1.422-2.844-29.867zM499.2 530.489l-2.844-1.422-5.689 4.267 2.844 22.756 4.267 8.533c2.844 0 4.267-2.844 4.267-5.689l-2.844-28.444zM509.156 530.489l2.844 31.289 8.533-2.844-1.422-25.6-7.111-5.689-2.844 2.844zM513.422 526.222l4.267 4.267h27.022l4.267-4.267-4.267-4.267h-27.022l-4.267 4.267zM550.4 493.511c-1.422-2.844-2.844-4.267-5.689-5.689l-2.844 8.533 2.844 22.756 7.111 5.689 1.422-1.422-2.844-29.867zM554.667 530.489l-2.844-1.422-5.689 4.267 2.844 22.756 4.267 8.533c2.844 0 4.267-2.844 4.267-5.689l-2.844-28.444zM566.044 487.822c-2.844 0-4.267 2.844-4.267 5.689l8.533 2.844h25.6l2.844-8.533h-32.711zM605.867 493.511c-1.422-2.844-2.844-4.267-5.689-5.689l-2.844 8.533 2.844 22.756 7.111 5.689 1.422-1.422-2.844-29.867zM604.444 556.089h-28.444l-8.533 2.844c1.422 2.844 2.844 4.267 5.689 5.689h34.133l-2.844-8.533z" />
<glyph unicode="&#xe61f;" glyph-name="iot_medical" d="M512 960c-283.022 0-512-228.978-512-512s228.978-512 512-512 512 228.978 512 512c0 283.022-228.978 512-512 512zM393.956 140.8c-69.689 0-125.156 56.889-125.156 125.156 0 46.933 25.6 88.178 64 109.511v314.311c0 28.444 28.444 51.2 62.578 51.2s62.578-22.756 62.578-51.2v-314.311c38.4-21.333 64-62.578 64-109.511-1.422-68.267-58.311-125.156-128-125.156zM802.133 483.556c-29.867-95.289-143.644-155.022-143.644-155.022s-98.133 51.2-136.533 133.689h46.933c4.267 0 7.111 2.844 8.533 5.689l15.644 49.778 15.644-119.467c0-4.267 4.267-7.111 8.533-7.111 0 0 0 0 0 0 4.267 0 7.111 2.844 8.533 5.689l21.333 85.333 17.067-25.6c1.422-2.844 4.267-4.267 7.111-4.267h69.689c4.267 0 8.533 4.267 8.533 8.533s-4.267 8.533-8.533 8.533h-65.422l-24.178 36.978c-1.422 2.844-5.689 4.267-8.533 4.267s-5.689-2.844-7.111-5.689l-15.644-61.156-14.222 112.356c0 4.267-4.267 7.111-7.111 7.111-4.267 0-7.111-1.422-8.533-5.689l-25.6-79.644h-46.933c0 1.422-1.422 2.844-1.422 4.267-42.667 136.533 108.089 177.778 143.644 79.644 34.133 100.978 184.889 58.311 142.222-78.222zM483.556 265.956c0-49.778-39.822-89.6-89.6-89.6s-89.6 39.822-89.6 89.6c0 38.4 24.178 69.689 56.889 83.911v204.8c0 15.644 14.222 27.022 32.711 27.022s32.711-12.8 32.711-27.022v-22.756h-22.756c-4.267 0-8.533-4.267-8.533-8.533s4.267-8.533 8.533-8.533h22.756v-24.178h-22.756c-4.267 0-8.533-4.267-8.533-8.533s4.267-8.533 8.533-8.533h22.756v-25.6h-22.756c-4.267 0-8.533-4.267-8.533-8.533s4.267-8.533 8.533-8.533h22.756v-25.6h-22.756c-4.267 0-8.533-4.267-8.533-8.533s4.267-8.533 8.533-8.533h22.756v-42.667c34.133-8.533 56.889-41.244 56.889-79.644z" />
<glyph unicode="&#xe620;" glyph-name="iot_others" d="M389.689 302.933c1.422-5.689 2.844-9.956 2.844-15.644 0-4.267-1.422-8.533-2.844-12.8 0 0 1.422 0 1.422-1.422 5.689-4.267 11.378-8.533 17.067-14.222s9.956-11.378 14.222-17.067c4.267-5.689 7.111-11.378 8.533-17.067 1.422-2.844 1.422-5.689 2.844-8.533 0-2.844 1.422-4.267 1.422-7.111s0-5.689 0-5.689c21.333 21.333 34.133 49.778 34.133 82.489 0 27.022-9.956 52.622-25.6 72.533l-54.044-55.467zM352.711 726.756c-64 0-116.622-52.622-116.622-116.622 0-31.289 12.8-61.156 32.711-82.489 0 1.422 0 2.844 0 5.689 0 1.422 1.422 4.267 1.422 7.111s1.422 5.689 2.844 8.533c1.422 5.689 5.689 11.378 8.533 17.067 4.267 5.689 8.533 11.378 14.222 17.067s9.956 9.956 17.067 12.8c-5.689 14.222-1.422 31.289 9.956 42.667s28.444 14.222 42.667 9.956c0 0 0 0 0 1.422 4.267 5.689 8.533 11.378 14.222 17.067s11.378 9.956 17.067 14.222c5.689 4.267 11.378 7.111 17.067 8.533 2.844 1.422 5.689 1.422 8.533 2.844 2.844 0 4.267 1.422 7.111 1.422 4.267 0 5.689 0 5.689 0s0-2.844 0-5.689c0-1.422-1.422-4.267-1.422-7.111s-1.422-5.689-2.844-8.533c-1.422-5.689-5.689-11.378-8.533-17.067-4.267-5.689-8.533-11.378-14.222-17.067s-11.378-9.956-17.067-14.222c0 0 0 0-1.422 0 4.267-9.956 2.844-21.333-1.422-31.289l55.467-55.467c15.644 19.911 25.6 45.511 25.6 72.533 0 64-52.622 116.622-116.622 116.622zM283.022 366.933c2.844 0 5.689-1.422 8.533-2.844 5.689-1.422 11.378-5.689 17.067-8.533 5.689-4.267 11.378-8.533 17.067-14.222s9.956-11.378 12.8-17.067c4.267 1.422 8.533 1.422 12.8 1.422 5.689 0 11.378-1.422 17.067-4.267l55.467 55.467c-19.911 14.222-44.089 24.178-71.111 24.178-32.711 0-61.156-12.8-82.489-34.133 1.422 0 2.844 0 5.689 0 1.422 1.422 4.267 1.422 7.111 0zM743.822 529.067c-2.844 0-5.689 1.422-8.533 2.844-5.689 1.422-11.378 5.689-17.067 8.533-5.689 4.267-11.378 8.533-17.067 14.222s-9.956 11.378-14.222 17.067c0 0 0 0 0 0-4.267-1.422-8.533-2.844-14.222-2.844s-12.8 1.422-17.067 4.267l-55.467-55.467c19.911-14.222 44.089-24.178 71.111-24.178 32.711 0 61.156 12.8 82.489 34.133-1.422 0-1.422 0-2.844 0-2.844 0-4.267 0-7.111 1.422zM422.4 206.222c-2.844 0-5.689 1.422-8.533 2.844-5.689 1.422-11.378 5.689-17.067 8.533-5.689 4.267-11.378 8.533-17.067 14.222s-9.956 11.378-14.222 17.067c0 0 0 0 0 1.422-4.267-1.422-9.956-2.844-15.644-2.844-22.756 0-41.244 18.489-41.244 41.244 0 5.689 1.422 9.956 2.844 14.222-5.689 4.267-11.378 8.533-15.644 12.8-5.689 5.689-9.956 11.378-14.222 17.067s-7.111 11.378-8.533 17.067c-1.422 2.844-1.422 5.689-2.844 8.533 0 2.844-1.422 4.267-1.422 7.111s0 5.689 0 5.689c-21.333-21.333-34.133-49.778-34.133-82.489 0-64 52.622-116.622 116.622-116.622 32.711 0 61.156 12.8 82.489 34.133-1.422 0-2.844 0-5.689 0-1.422-1.422-2.844-1.422-5.689 0zM337.067 570.311c-4.267-5.689-8.533-11.378-12.8-17.067-5.689-5.689-11.378-9.956-17.067-14.222s-11.378-7.111-17.067-8.533c-2.844-1.422-5.689-1.422-8.533-2.844-2.844 0-4.267-1.422-7.111-1.422s-4.267 0-5.689 0c21.333-21.333 49.778-34.133 82.489-34.133 25.6 0 49.778 8.533 69.689 22.756l-55.467 55.467c-8.533-2.844-18.489-4.267-28.444 0zM674.133 328.533c4.267 0 9.956-1.422 14.222-2.844 0 0 0 0 0 0 4.267 5.689 8.533 11.378 14.222 17.067s11.378 9.956 17.067 14.222c5.689 4.267 11.378 7.111 17.067 8.533 2.844 1.422 5.689 1.422 8.533 2.844 2.844 0 4.267 1.422 7.111 1.422 1.422 0 2.844 0 2.844 0-21.333 21.333-49.778 34.133-82.489 34.133-25.6 0-49.778-8.533-69.689-22.756l56.889-55.467c2.844 1.422 8.533 2.844 14.222 2.844zM632.889 610.133c0 4.267 1.422 9.956 2.844 14.222 0 0 0 0 0 0-5.689 4.267-11.378 8.533-17.067 14.222s-9.956 11.378-14.222 17.067c-4.267 5.689-7.111 11.378-8.533 17.067-1.422 2.844-1.422 5.689-2.844 8.533 0 2.844-1.422 4.267-1.422 7.111 0 4.267 0 5.689 0 5.689s2.844 0 5.689 0c1.422 0 4.267-1.422 7.111-1.422s5.689-1.422 8.533-2.844c5.689-1.422 11.378-5.689 17.067-8.533 5.689-4.267 11.378-8.533 17.067-14.222s9.956-11.378 14.222-17.067c0 0 0 0 0 0 4.267 1.422 8.533 2.844 14.222 2.844 22.756 0 41.244-18.489 41.244-41.244 0-4.267-1.422-9.956-2.844-14.222 0 0 0 0 0 0 5.689-4.267 11.378-8.533 17.067-14.222s9.956-11.378 14.222-17.067c4.267-5.689 7.111-11.378 8.533-17.067 1.422-2.844 1.422-5.689 2.844-8.533 0-2.844 1.422-4.267 1.422-7.111 0-1.422 0-2.844 0-2.844 19.911 21.333 31.289 48.356 31.289 79.644 0 64-52.622 116.622-116.622 116.622s-118.044-52.622-118.044-116.622c0-27.022 9.956-52.622 25.6-72.533l56.889 56.889c-2.844 4.267-4.267 9.956-4.267 15.644zM512 960c-283.022 0-512-228.978-512-512s228.978-512 512-512 512 228.978 512 512c0 283.022-228.978 512-512 512zM588.8 401.067c22.756 17.067 51.2 27.022 82.489 27.022 78.222 0 140.8-64 140.8-140.8 0-78.222-64-140.8-140.8-140.8s-140.8 64-140.8 140.8c0 31.289 9.956 61.156 28.444 83.911-29.867 12.8-62.578 12.8-92.444 0 17.067-24.178 28.444-52.622 28.444-83.911 0-78.222-64-140.8-140.8-140.8-78.222 0-140.8 64-140.8 140.8 0 78.222 64 140.8 140.8 140.8 31.289 0 59.733-9.956 82.489-27.022 12.8 29.867 12.8 64 0 93.867-22.756-17.067-51.2-27.022-82.489-27.022-78.222 0-140.8 64-140.8 140.8s64 140.8 140.8 140.8c78.222 0 140.8-64 140.8-140.8 0-31.289-9.956-61.156-28.444-83.911 29.867-12.8 62.578-12.8 92.444 0-17.067 24.178-28.444 52.622-28.444 83.911 0 78.222 64 140.8 140.8 140.8s140.8-64 140.8-140.8-64-140.8-140.8-140.8c-31.289 0-58.311 9.956-82.489 27.022-12.8-29.867-12.8-64 0-93.867zM671.289 169.244c64 0 116.622 52.622 116.622 116.622 0 31.289-11.378 58.311-31.289 79.644 0-1.422 0-1.422 0-2.844s-1.422-4.267-1.422-7.111c0-2.844-1.422-5.689-2.844-8.533-1.422-5.689-5.689-11.378-8.533-17.067-4.267-5.689-8.533-11.378-14.222-17.067s-11.378-9.956-17.067-14.222c0 0 0 0 0 0 1.422-4.267 2.844-8.533 2.844-14.222 0-22.756-18.489-41.244-41.244-41.244-4.267 0-9.956 1.422-14.222 2.844 0 0 0 0 0 0-4.267-5.689-8.533-11.378-14.222-17.067s-11.378-9.956-17.067-14.222c-5.689-4.267-11.378-7.111-17.067-8.533-2.844-1.422-5.689-1.422-8.533-2.844-2.844 0-4.267-1.422-7.111-1.422-4.267 0-5.689 0-5.689 0s0 2.844 0 5.689c0 1.422 1.422 4.267 1.422 7.111s1.422 5.689 2.844 8.533c1.422 5.689 5.689 11.378 8.533 17.067 4.267 5.689 8.533 11.378 14.222 17.067s11.378 9.956 17.067 14.222c0 0 0 0 0 0-1.422 4.267-2.844 8.533-2.844 14.222s1.422 11.378 4.267 17.067l-56.889 55.467c-15.644-19.911-25.6-45.511-25.6-72.533 1.422-64 54.044-116.622 118.044-116.622z" />
<glyph unicode="&#xe621;" glyph-name="lightbulb" d="M512 960c-283.022 0-512-228.978-512-512s228.978-512 512-512 512 228.978 512 512-228.978 512-512 512zM603.022 679.822l35.556 68.267c4.267 7.111 12.8 9.956 19.911 5.689v0c7.111-4.267 9.956-12.8 5.689-19.911l-35.556-68.267c-4.267-7.111-12.8-9.956-19.911-5.689v0c-7.111 4.267-9.956 12.8-5.689 19.911zM496.356 775.111c0 8.533 7.111 14.222 14.222 14.222v0c8.533 0 14.222-7.111 14.222-14.222v-76.8c0-8.533-7.111-14.222-14.222-14.222v0c-8.533 0-14.222 7.111-14.222 14.222v76.8zM366.933 755.2v0c7.111 4.267 15.644 1.422 19.911-5.689l35.556-68.267c4.267-7.111 1.422-15.644-5.689-19.911v0c-7.111-4.267-15.644-1.422-19.911 5.689l-35.556 68.267c-4.267 7.111-1.422 15.644 5.689 19.911zM196.267 519.111v0c1.422 8.533 8.533 12.8 17.067 12.8l75.378-11.378c8.533-1.422 12.8-8.533 11.378-17.067v0c-1.422-8.533-8.533-14.222-15.644-12.8l-75.378 11.378c-8.533 1.422-14.222 9.956-12.8 17.067zM300.089 385.422l-72.533-24.178c-7.111-2.844-15.644 1.422-18.489 8.533v0c-2.844 7.111 1.422 15.644 8.533 18.489l72.533 24.178c7.111 2.844 15.644-1.422 18.489-8.533v0c2.844-8.533-1.422-17.067-8.533-18.489zM318.578 593.067l-62.578 44.089c-7.111 4.267-8.533 14.222-2.844 19.911v0c4.267 7.111 14.222 8.533 19.911 2.844l62.578-45.511c7.111-4.267 8.533-14.222 2.844-19.911v0c-4.267-5.689-12.8-7.111-19.911-1.422zM560.356 120.889c0-8.533-7.111-15.644-15.644-15.644h-68.267c-8.533 0-15.644 7.111-15.644 15.644v0c0 8.533 7.111 15.644 15.644 15.644h68.267c9.956 0 15.644-7.111 15.644-15.644v0zM570.311 146.489h-115.2c-8.533 0-15.644 7.111-15.644 15.644s7.111 15.644 15.644 15.644h115.2c8.533 0 15.644-7.111 15.644-15.644s-8.533-15.644-15.644-15.644zM570.311 187.733h-115.2c-8.533 0-15.644 7.111-15.644 15.644s7.111 15.644 15.644 15.644h115.2c8.533 0 15.644-7.111 15.644-15.644s-8.533-15.644-15.644-15.644zM484.978 422.4h-19.911c-17.067 0-28.444 5.689-32.711 17.067-4.267 9.956-1.422 21.333 5.689 28.444 5.689 4.267 11.378 7.111 18.489 7.111 2.844 0 7.111 0 9.956-1.422 12.8-5.689 18.489-18.489 18.489-35.556v-15.644zM500.622 231.822v174.933h22.756v-174.933h-22.756zM585.956 311.467l-7.111-78.222h-39.822v173.511h19.911c22.756 0 39.822 9.956 46.933 27.022 5.689 15.644 2.844 34.133-9.956 45.511s-29.867 14.222-45.511 8.533c-17.067-7.111-28.444-27.022-28.444-49.778v-15.644h-22.756v15.644c0 24.178-9.956 42.667-28.444 49.778-15.644 7.111-32.711 2.844-45.511-8.533-11.378-11.378-15.644-29.867-9.956-45.511 7.111-17.067 24.178-27.022 46.933-27.022h19.911v-174.933h-39.822l-7.111 78.222c-58.311 27.022-99.556 88.178-99.556 156.444 0 95.289 78.222 173.511 173.511 173.511s173.511-78.222 173.511-173.511c2.844-68.267-38.4-128-96.711-155.022zM539.022 422.4v15.644c0 17.067 7.111 31.289 18.489 35.556 9.956 4.267 19.911 1.422 28.444-5.689 7.111-7.111 9.956-18.489 5.689-28.444-4.267-11.378-15.644-17.067-32.711-17.067h-19.911zM685.511 595.911v0c-4.267 7.111-2.844 15.644 2.844 19.911l62.578 45.511c7.111 4.267 15.644 2.844 19.911-2.844v0c4.267-7.111 2.844-15.644-2.844-19.911l-62.578-45.511c-7.111-5.689-15.644-4.267-19.911 2.844zM816.356 369.778v0c-2.844-7.111-9.956-11.378-18.489-9.956l-72.533 24.178c-7.111 2.844-11.378 9.956-8.533 18.489v0c2.844 7.111 9.956 11.378 18.489 8.533l72.533-24.178c5.689-1.422 9.956-8.533 8.533-17.067zM816.356 503.467l-76.8-12.8c-8.533-1.422-15.644 4.267-17.067 11.378v0c-1.422 8.533 4.267 15.644 11.378 17.067l75.378 11.378c8.533 1.422 15.644-4.267 17.067-11.378v0c2.844-7.111-2.844-15.644-9.956-15.644z" />
<glyph unicode="&#xe622;" glyph-name="loc_brcm_logo" d="M189.156 452.267h-12.8l2.844 14.222h9.956c5.689 0 11.378 0 9.956-7.111 1.422-5.689-4.267-7.111-9.956-7.111zM290.133 456.533c0-5.689-5.689-7.111-15.644-7.111h-11.378l2.844 17.067h14.222c7.111 0 11.378-4.267 9.956-9.956zM361.244 418.133c-14.222 0-15.644 14.222-12.8 25.6 1.422 11.378 8.533 24.178 21.333 24.178 12.8 1.422 14.222-12.8 12.8-24.178-1.422-14.222-8.533-25.6-21.333-25.6zM732.444 418.133c-14.222 0-15.644 14.222-12.8 25.6 1.422 11.378 8.533 24.178 21.333 24.178 12.8 1.422 14.222-12.8 12.8-24.178-1.422-14.222-8.533-25.6-21.333-25.6zM199.111 426.667c-1.422-5.689-7.111-7.111-14.222-7.111h-12.8l2.844 15.644h9.956c8.533 0 15.644-1.422 14.222-8.533zM903.111 409.6c1.422 5.689 5.689 8.533 9.956 8.533 5.689 0 8.533-4.267 7.111-8.533-1.422-5.689-5.689-8.533-9.956-8.533s-7.111 4.267-7.111 8.533zM905.956 403.911l2.844 12.8h5.689c2.844 0 4.267-1.422 4.267-4.267 0-1.422-1.422-2.844-4.267-2.844l1.422-5.689h-2.844l-1.422 5.689h-1.422l-1.422-5.689h-2.844zM546.133 466.489c15.644 0 21.333-4.267 17.067-22.756-2.844-17.067-11.378-24.178-25.6-24.178h-5.689l8.533 46.933h5.689zM900.267 409.6c-1.422-7.111 2.844-11.378 9.956-11.378s12.8 5.689 14.222 11.378c1.422 7.111-2.844 11.378-9.956 11.378-7.111 1.422-12.8-4.267-14.222-11.378zM797.867 487.822h35.556l5.689-55.467 22.756 54.044h35.556l-15.644-88.178h-25.6l4.267 27.022 2.844 14.222 4.267 15.644-25.6-56.889h-19.911l-5.689 56.889-1.422-12.8-1.422-14.222-5.689-29.867h-25.6l15.644 89.6zM728.178 395.378c25.6 0 49.778 17.067 55.467 46.933 4.267 22.756-7.111 46.933-38.4 46.933-27.022 0-49.778-18.489-54.044-45.511-5.689-29.867 9.956-48.356 36.978-48.356zM637.156 395.378c-29.867 0-44.089 18.489-39.822 45.511 5.689 28.444 28.444 46.933 52.622 46.933 27.022 0 39.822-12.8 38.4-35.556h-27.022c1.422 8.533-4.267 14.222-12.8 14.222-9.956 0-18.489-8.533-21.333-25.6-2.844-12.8-1.422-24.178 12.8-24.178 8.533 0 14.222 7.111 17.067 15.644h28.444c-5.689-22.756-25.6-36.978-48.356-36.978zM453.689 506.311l-1.422 1.422c0 0 19.911 160.711 19.911 160.711 5.689 38.4 32.711 38.4 34.133 38.4s28.444 0 34.133-38.4c0 0 19.911-160.711 19.911-160.711v-1.422h-36.978v1.422c0 0-14.222 147.911-14.222 147.911 0 4.267-1.422 5.689-2.844 5.689v0 0c0 0-2.844-1.422-2.844-5.689l-14.222-147.911v-1.422h-35.556zM318.578 443.733c-5.689-29.867 9.956-46.933 38.4-46.933 25.6 0 49.778 17.067 55.467 46.933 4.267 22.756-7.111 46.933-38.4 46.933-28.444-1.422-49.778-19.911-55.467-46.933zM241.778 487.822l-15.644-88.178h28.444l5.689 31.289h8.533c14.222 0 14.222-4.267 12.8-15.644-1.422-8.533-1.422-14.222-1.422-15.644h29.867v2.844c-2.844 0-2.844 4.267 0 15.644 2.844 18.489-1.422 19.911-11.378 24.178 11.378 2.844 17.067 11.378 18.489 21.333 2.844 17.067-5.689 25.6-35.556 25.6h-39.822zM139.378 398.222h42.667c22.756 0 39.822 7.111 42.667 27.022 1.422 9.956-1.422 18.489-11.378 19.911 5.689 4.267 12.8 9.956 15.644 19.911 2.844 17.067-11.378 22.756-31.289 22.756h-42.667l-15.644-89.6zM460.8 379.733l-1.422-1.422c-1.422-1.422-1.422-4.267-2.844-7.111-9.956-25.6-28.444-68.267-83.911-68.267-31.289-1.422-51.2 12.8-71.111 27.022s-38.4 27.022-66.844 27.022c-17.067 0-32.711-8.533-46.933-15.644s-28.444-14.222-44.089-14.222h-44.089v29.867h44.089c8.533 0 19.911 5.689 32.711 12.8 15.644 8.533 34.133 18.489 56.889 18.489 28.444-1.422 49.778-14.222 71.111-28.444s41.244-27.022 68.267-27.022c28.444 0 34.133 14.222 42.667 31.289 1.422 5.689 4.267 9.956 7.111 15.644h38.4zM493.511 398.222h-28.444l-1.422 11.378h-28.444l-5.689-11.378h-28.444l46.933 88.178h29.867l15.644-88.178zM537.6 398.222c28.444 0 49.778 12.8 55.467 46.933 5.689 29.867-9.956 42.667-38.4 42.667h-38.4l-15.644-88.178h36.978zM924.444 354.133v0 0l-56.889 1.422c-9.956 0-21.333 5.689-32.711 12.8-17.067 8.533-35.556 18.489-56.889 18.489-28.444 0-49.778-14.222-71.111-28.444s-41.244-27.022-66.844-27.022c-28.444 0-34.133 14.222-42.667 31.289-2.844 4.267-4.267 9.956-7.111 15.644v0h-38.4l1.422-1.422c1.422-2.844 1.422-4.267 2.844-7.111 9.956-25.6 27.022-66.844 83.911-68.267 31.289 0 52.622 14.222 71.111 27.022 19.911 14.222 38.4 27.022 66.844 27.022 17.067 0 32.711-8.533 46.933-15.644s28.444-14.222 44.089-14.222h55.467v28.444zM915.911 412.444c0 1.422-1.422 1.422-2.844 1.422h-2.844v-2.844h2.844c1.422 0 2.844 0 2.844 1.422zM442.311 428.089h18.489l-4.267 31.289-14.222-31.289z" />
<glyph unicode="&#xe623;" glyph-name="loc_brcmoffices" d="M189.156 452.267h-12.8l2.844 14.222h9.956c5.689 0 11.378 0 9.956-7.111 1.422-5.689-4.267-7.111-9.956-7.111zM290.133 456.533c1.422 5.689-2.844 9.956-9.956 9.956h-14.222l-2.844-17.067h11.378c9.956 0 15.644 1.422 15.644 7.111zM361.244 418.133c12.8 0 19.911 11.378 21.333 25.6 1.422 11.378 0 25.6-12.8 24.178-12.8 0-19.911-12.8-21.333-24.178-2.844-11.378-1.422-25.6 12.8-25.6zM732.444 418.133c12.8 0 19.911 11.378 21.333 25.6 1.422 11.378 0 25.6-12.8 24.178-12.8 0-19.911-12.8-21.333-24.178-2.844-11.378-1.422-25.6 12.8-25.6zM199.111 426.667c1.422 7.111-5.689 8.533-14.222 8.533h-9.956l-2.844-15.644h12.8c7.111 0 12.8 1.422 14.222 7.111zM903.111 409.6c1.422 5.689 5.689 8.533 9.956 8.533 5.689 0 8.533-4.267 7.111-8.533-1.422-5.689-5.689-8.533-9.956-8.533s-7.111 4.267-7.111 8.533zM905.956 403.911h2.844l1.422 5.689h1.422l1.422-5.689h2.844l-1.422 5.689c2.844 0 4.267 1.422 4.267 2.844 0 2.844-1.422 4.267-4.267 4.267h-5.689l-2.844-12.8zM546.133 466.489h-5.689l-8.533-46.933h5.689c14.222 0 22.756 7.111 25.6 24.178 4.267 18.489-1.422 22.756-17.067 22.756zM1024 448c0-283.022-228.978-512-512-512s-512 228.978-512 512 228.978 512 512 512c283.022 0 512-228.978 512-512zM900.267 409.6c-1.422-7.111 2.844-11.378 9.956-11.378s12.8 5.689 14.222 11.378c1.422 7.111-2.844 11.378-9.956 11.378-7.111 1.422-12.8-4.267-14.222-11.378zM797.867 487.822l-15.644-89.6h25.6l5.689 29.867 1.422 14.222 1.422 12.8 5.689-56.889h19.911l25.6 56.889-4.267-15.644-2.844-14.222-4.267-27.022h25.6l15.644 88.178h-35.556l-22.756-54.044-5.689 55.467h-35.556zM728.178 395.378c25.6 0 49.778 17.067 55.467 46.933 4.267 22.756-7.111 46.933-38.4 46.933-27.022 0-49.778-18.489-54.044-45.511-5.689-29.867 9.956-48.356 36.978-48.356zM637.156 395.378c22.756 0 42.667 14.222 48.356 36.978h-28.444c-2.844-8.533-8.533-15.644-17.067-15.644-14.222 0-15.644 11.378-12.8 24.178 2.844 17.067 11.378 25.6 21.333 25.6 8.533 0 14.222-5.689 12.8-14.222h27.022c1.422 22.756-11.378 35.556-38.4 35.556-24.178 0-46.933-18.489-52.622-46.933-4.267-27.022 9.956-45.511 39.822-45.511zM453.689 506.311h35.556v1.422l14.222 147.911c0 4.267 2.844 5.689 2.844 5.689v0 0c1.422 0 2.844-1.422 2.844-5.689 0 0 14.222-147.911 14.222-147.911v-1.422h36.978v1.422c0 0-19.911 160.711-19.911 160.711-5.689 38.4-32.711 38.4-34.133 38.4s-28.444 0-34.133-38.4c0 0-19.911-160.711-19.911-160.711l1.422-1.422zM318.578 443.733c-5.689-29.867 9.956-46.933 38.4-46.933 25.6 0 49.778 17.067 55.467 46.933 4.267 22.756-7.111 46.933-38.4 46.933-28.444-1.422-49.778-19.911-55.467-46.933zM241.778 487.822l-15.644-88.178h28.444l5.689 31.289h8.533c14.222 0 14.222-4.267 12.8-15.644-1.422-8.533-1.422-14.222-1.422-15.644h29.867v2.844c-2.844 0-2.844 4.267 0 15.644 2.844 18.489-1.422 19.911-11.378 24.178 11.378 2.844 17.067 11.378 18.489 21.333 2.844 17.067-5.689 25.6-35.556 25.6h-39.822zM139.378 398.222h42.667c22.756 0 39.822 7.111 42.667 27.022 1.422 9.956-1.422 18.489-11.378 19.911 5.689 4.267 12.8 9.956 15.644 19.911 2.844 17.067-11.378 22.756-31.289 22.756h-42.667l-15.644-89.6zM460.8 379.733h-38.4c-2.844-5.689-5.689-9.956-7.111-15.644-8.533-17.067-14.222-31.289-42.667-31.289-27.022 0-46.933 12.8-68.267 27.022s-42.667 27.022-71.111 28.444c-22.756 0-41.244-9.956-56.889-18.489-12.8-7.111-24.178-12.8-32.711-12.8h-44.089v-29.867h44.089c15.644 0 29.867 7.111 44.089 14.222s29.867 15.644 46.933 15.644c28.444 0 46.933-12.8 66.844-27.022s39.822-28.444 71.111-27.022c55.467 0 73.956 42.667 83.911 68.267 1.422 2.844 1.422 5.689 2.844 7.111l1.422 1.422zM493.511 398.222l-15.644 88.178h-29.867l-46.933-88.178h28.444l5.689 11.378h28.444l1.422-11.378h28.444zM537.6 398.222c28.444 0 49.778 12.8 55.467 46.933 5.689 29.867-9.956 42.667-38.4 42.667h-38.4l-15.644-88.178h36.978zM924.444 354.133v0 0l-56.889 1.422c-9.956 0-21.333 5.689-32.711 12.8-17.067 8.533-35.556 18.489-56.889 18.489-28.444 0-49.778-14.222-71.111-28.444s-41.244-27.022-66.844-27.022c-28.444 0-34.133 14.222-42.667 31.289-2.844 4.267-4.267 9.956-7.111 15.644v0h-38.4l1.422-1.422c1.422-2.844 1.422-4.267 2.844-7.111 9.956-25.6 27.022-66.844 83.911-68.267 31.289 0 52.622 14.222 71.111 27.022 19.911 14.222 38.4 27.022 66.844 27.022 17.067 0 32.711-8.533 46.933-15.644s28.444-14.222 44.089-14.222h55.467v28.444zM915.911 412.444c0 1.422-1.422 1.422-2.844 1.422h-2.844v-2.844h2.844c1.422 0 2.844 0 2.844 1.422zM442.311 428.089h18.489l-4.267 31.289-14.222-31.289z" />
<glyph unicode="&#xe624;" glyph-name="loc_distrib" d="M512 960c-283.022 0-512-228.978-512-512s228.978-512 512-512c283.022 0 512 228.978 512 512s-228.978 512-512 512zM173.511 365.511h-21.333v164.978h21.333v-164.978zM214.756 365.511h-21.333v164.978h21.333v-164.978zM257.422 365.511h-21.333v164.978h21.333v-164.978zM536.178 190.578v174.933h-258.844v164.978h258.844v174.933l334.222-257.422-334.222-257.422z" />
<glyph unicode="&#xe625;" glyph-name="loc_manufacturers" d="M512 960c-283.022 0-512-228.978-512-512s228.978-512 512-512c283.022 0 512 228.978 512 512s-228.978 512-512 512zM517.689 217.6c-207.644 0-287.289 25.6-287.289 25.6 1.422 7.111 2.844 62.578 4.267 69.689 17.067 85.333 59.733 150.756 219.022 162.133-51.2 29.867-86.756 95.289-86.756 160.711 0 89.6 65.422 145.067 145.067 145.067 81.067 0 145.067-55.467 145.067-145.067 0-65.422-35.556-130.844-86.756-160.711 156.444-12.8 201.956-75.378 219.022-157.867 1.422-8.533 2.844-64 4.267-72.533 0-1.422-75.378-27.022-275.911-27.022z" />
<glyph unicode="&#xe626;" glyph-name="loc_salesoffices" d="M539.022 419.556c-2.844-15.644-12.8-25.6-29.867-25.6-22.756 0-34.133 18.489-34.133 52.622 0 35.556 12.8 54.044 35.556 54.044 14.222 0 25.6-9.956 28.444-22.756 0-1.422-1.422-2.844-1.422-2.844h-9.956c-1.422 0-1.422 1.422-1.422 1.422-1.422 7.111-5.689 11.378-12.8 11.378-14.222 0-21.333-14.222-21.333-42.667 0-27.022 7.111-39.822 21.333-39.822 8.533 0 14.222 5.689 15.644 14.222 0 1.422 1.422 2.844 2.844 2.844h9.956c-4.267 0-2.844-1.422-2.844-2.844zM624.356 499.2h-9.956c-1.422 0-1.422 0-2.844-1.422l-19.911-45.511-19.911 45.511c0 1.422-1.422 1.422-2.844 1.422h-9.956c-1.422 0-2.844-1.422-2.844-2.844v-98.133c0-1.422 1.422-2.844 2.844-2.844h9.956c1.422 0 2.844 1.422 2.844 2.844v68.267l18.489-41.244c1.422-1.422 2.844-1.422 4.267 0l18.489 41.244v-68.267c0-1.422 1.422-2.844 2.844-2.844h9.956c1.422 0 2.844 1.422 2.844 2.844v98.133c-1.422 1.422-2.844 2.844-4.267 2.844zM1024 448c0-283.022-228.978-512-512-512s-512 228.978-512 512c0 283.022 228.978 512 512 512s512-228.978 512-512zM777.956 632.889c0 45.511-36.978 82.489-82.489 82.489h-366.933c-45.511 0-82.489-36.978-82.489-82.489v-368.356c0-45.511 36.978-82.489 82.489-82.489h368.356c45.511 0 82.489 36.978 82.489 82.489v368.356zM459.378 425.244c0-14.222-11.378-28.444-31.289-28.444h-28.444c-1.422 0-2.844 1.422-2.844 2.844v98.133c0 1.422 1.422 2.844 2.844 2.844h21.333c9.956 0 34.133 0 34.133-27.022 0-8.533-4.267-15.644-11.378-21.333 11.378-7.111 15.644-15.644 15.644-27.022zM411.022 456.533h11.378c8.533 0 18.489 5.689 18.489 17.067 0 12.8-8.533 14.222-18.489 14.222h-11.378v-31.289zM445.156 425.244c0 9.956-5.689 18.489-22.756 18.489h-11.378v-35.556h17.067c8.533 0 17.067 4.267 17.067 17.067zM310.044 649.956h402.489v-402.489h-402.489v402.489zM344.178 280.178h335.644v335.644h-335.644v-335.644z" />
<glyph unicode="&#xe627;" glyph-name="locmarker" d="M512 960c-283.022 0-512-228.978-512-512s228.978-512 512-512c283.022 0 512 228.978 512 512s-228.978 512-512 512zM512 115.2c0 0-179.2 320-179.2 459.378 0 99.556 79.644 180.622 179.2 180.622s179.2-81.067 179.2-180.622c0-139.378-179.2-459.378-179.2-459.378zM512 668.444c-51.2 0-92.444-42.667-92.444-93.867s41.244-93.867 92.444-93.867c51.2 0 92.444 42.667 92.444 93.867s-41.244 93.867-92.444 93.867z" />
<glyph unicode="&#xe628;" glyph-name="mission" d="M512 664.178c-119.467 0-216.178-96.711-216.178-216.178s96.711-216.178 216.178-216.178 216.178 96.711 216.178 216.178-96.711 216.178-216.178 216.178zM512 256c-106.667 0-192 86.756-192 192s85.333 192 192 192 192-85.333 192-192-85.333-192-192-192zM512 960c-283.022 0-512-228.978-512-512s228.978-512 512-512 512 228.978 512 512-228.978 512-512 512zM826.311 374.044l-56.889-29.867 21.333-59.733-62.578-11.378 2.844-64-64 8.533-15.644-62.578-58.311 27.022-32.711-54.044-48.356 42.667-48.356-42.667-32.711 54.044-58.311-27.022-15.644 62.578-64-8.533 2.844 64-62.578 11.378 21.333 59.733-56.889 29.867 38.4 51.2-45.511 44.089 52.622 36.978-31.289 56.889 61.156 19.911-12.8 64 64 1.422 5.689 64 61.156-17.067 24.178 58.311 54.044-34.133 41.244 48.356 41.244-48.356 54.044 34.133 24.178-58.311 61.156 17.067 5.689-64 64-1.422-12.8-62.578 61.156-19.911-31.289-56.889 52.622-36.978-45.511-44.089 41.244-52.622zM548.978 483.556l112.356-2.844-89.6-68.267 32.711-108.089-92.444 65.422-92.444-64 32.711 108.089-89.6 68.267 112.356 2.844 36.978 105.244 36.978-106.667z" />
<glyph unicode="&#xe629;" glyph-name="pdf" d="M803.556 581.689v-436.622c0-19.911-15.644-36.978-36.978-36.978h-509.156c-19.911 0-36.978 15.644-36.978 36.978v605.867c0 19.911 15.644 36.978 36.978 36.978h339.911c19.911 0 48.356-11.378 62.578-25.6l118.044-118.044c14.222-14.222 25.6-42.667 25.6-62.578zM755.2 544.711h-157.867c-19.911 0-36.978 15.644-36.978 36.978v157.867h-291.556v-583.111h486.4v388.267zM591.644 359.822c15.644 1.422 31.289 2.844 44.089 2.844 25.6 0 58.311-2.844 66.844-18.489 2.844-4.267 4.267-9.956 1.422-19.911 0 0-1.422-1.422-1.422-1.422v0c-1.422-7.111-7.111-14.222-27.022-14.222-24.178 0-61.156 11.378-92.444 27.022-52.622-5.689-108.089-17.067-149.333-31.289-38.4-66.844-69.689-99.556-92.444-99.556-4.267 0-7.111 1.422-9.956 2.844l-8.533 4.267c-1.422 0-1.422 1.422-2.844 1.422-1.422 1.422-2.844 5.689-2.844 14.222 4.267 17.067 24.178 46.933 71.111 71.111 2.844 1.422 7.111 1.422 8.533-2.844 0 0 1.422-1.422 1.422-1.422 11.378 19.911 25.6 44.089 41.244 75.378 17.067 34.133 29.867 66.844 39.822 99.556-12.8 41.244-15.644 83.911-8.533 109.511 2.844 9.956 8.533 15.644 15.644 15.644h8.533c5.689 0 9.956-1.422 12.8-5.689 4.267-5.689 5.689-14.222 2.844-25.6 0-1.422-1.422-2.844-1.422-2.844 0-1.422 0-1.422 0-2.844 0-4.267 0-7.111 0-11.378 0-24.178-1.422-46.933-5.689-72.533 12.8-39.822 32.711-72.533 55.467-91.022 9.956-8.533 21.333-15.644 32.711-22.756zM392.533 285.867c-28.444-21.333-46.933-46.933-52.622-59.733 12.8 4.267 28.444 21.333 52.622 59.733zM553.244 354.133c-4.267 2.844-7.111 5.689-11.378 8.533-18.489 15.644-35.556 38.4-48.356 66.844-7.111-22.756-18.489-48.356-31.289-75.378-5.689-9.956-11.378-21.333-17.067-31.289 34.133 14.222 71.111 25.6 108.089 31.289zM492.089 524.8c1.422 5.689 1.422 11.378 2.844 17.067 1.422 7.111 1.422 11.378 2.844 15.644 0 1.422 1.422 1.422 1.422 2.844 0 0 0 1.422-1.422 1.422 0 7.111-2.844 11.378-4.267 14.222 0-1.422 0-1.422 0-1.422-5.689-9.956-5.689-28.444-1.422-49.778zM608.711 593.067h142.222c-2.844 7.111-5.689 12.8-8.533 15.644l-119.467 119.467c-2.844 2.844-8.533 5.689-15.644 8.533v-143.644zM637.156 338.489c18.489-7.111 35.556-9.956 46.933-9.956 2.844 0 5.689 0 7.111 0 0 0 0 1.422-1.422 1.422-1.422 1.422-11.378 8.533-52.622 8.533z" />
<glyph unicode="&#xe62a;" glyph-name="press" d="M512 960c-283.022 0-512-230.4-512-512s228.978-512 512-512c283.022 0 512 228.978 512 512 0 281.6-228.978 512-512 512zM530.489 192l-59.733-27.022c-18.489-8.533-38.4-5.689-52.622 8.533l-73.956 68.267c-4.267 4.267-2.844 11.378 2.844 14.222l59.733 27.022c17.067 8.533 36.978 5.689 51.2-7.111l73.956-69.689c5.689-4.267 4.267-11.378-1.422-14.222zM691.2 321.422c-1.422-2.844-4.267-4.267-7.111-4.267-4.267-1.422-9.956-2.844-14.222-1.422-1.422 0-34.133 9.956-113.778 25.6-72.533 14.222-122.311-7.111-126.578-9.956 0 0-1.422 0-1.422 0s0 0 0 0l-132.267-59.733c-9.956-4.267-22.756 0-27.022 9.956l-2.844 5.689c-34.133-14.222-75.378 1.422-91.022 35.556s-2.844 73.956 32.711 92.444l-2.844 4.267c-4.267 9.956 1.422 21.333 11.378 25.6l132.267 59.733c0 0 0 1.422 0 1.422s0 1.422 0 1.422c5.689 2.844 54.044 25.6 91.022 89.6 39.822 71.111 54.044 102.4 55.467 103.822 2.844 7.111 9.956 11.378 18.489 12.8 8.533 0 15.644-4.267 18.489-11.378l55.467-122.311c25.6 0 51.2-15.644 62.578-41.244s7.111-54.044-9.956-73.956l55.467-120.889c2.844-8.533 1.422-17.067-4.267-22.756zM748.089 475.022l-42.667 22.756c11.378 18.489 14.222 42.667 5.689 62.578-9.956 21.333-31.289 35.556-52.622 38.4l9.956 48.356c36.978-5.689 71.111-28.444 86.756-65.422 15.644-35.556 12.8-75.378-7.111-106.667zM827.733 432.356l-42.667 24.178c25.6 42.667 29.867 95.289 7.111 143.644s-66.844 79.644-115.2 88.178l9.956 48.356c64-11.378 120.889-52.622 149.333-115.2 28.444-64 22.756-133.689-8.533-189.156zM473.6 576c-41.244-72.533-96.711-100.978-108.089-106.667-1.422 0-1.422-1.422-1.422-1.422l-113.778-52.622 45.511-100.978 113.778 52.622c0 0 1.422 0 1.422 0 11.378 4.267 69.689 28.444 152.178 11.378 32.711-5.689 58.311-11.378 75.378-17.067l-128 280.178c-7.111-12.8-19.911-35.556-36.978-65.422z" />
<glyph unicode="&#xe62b;" glyph-name="pressreleases" d="M512 960c-283.022 0-512-230.4-512-512s228.978-512 512-512c283.022 0 512 228.978 512 512 0 281.6-228.978 512-512 512zM806.4 332.8l-312.889-182.044c-4.267-2.844-9.956-4.267-15.644-4.267s-11.378 1.422-15.644 4.267l-244.622 140.8c-4.267 2.844-7.111 5.689-7.111 8.533s2.844 7.111 7.111 8.533l44.089 25.6 31.289-18.489-28.444-15.644 211.911-122.311 281.6 163.556-34.133 21.333 31.289 18.489 49.778-28.444c4.267-2.844 7.111-5.689 7.111-8.533 0-5.689-1.422-8.533-5.689-11.378zM806.4 459.378l-312.889-182.044c-4.267-2.844-9.956-4.267-15.644-4.267s-11.378 1.422-15.644 4.267l-243.2 140.8c-4.267 2.844-7.111 5.689-7.111 8.533s2.844 7.111 7.111 8.533l44.089 25.6 31.289-18.489-28.444-15.644 210.489-120.889 281.6 163.556-34.133 19.911 31.289 18.489 49.778-28.444c4.267-2.844 7.111-5.689 7.111-8.533 0-5.689-1.422-8.533-5.689-11.378zM806.4 585.956l-312.889-182.044c-4.267-2.844-9.956-4.267-15.644-4.267s-11.378 1.422-15.644 4.267l-243.2 140.8c-4.267 2.844-7.111 5.689-7.111 8.533s2.844 7.111 7.111 8.533l312.889 182.044c4.267 2.844 9.956 4.267 15.644 4.267s11.378-1.422 15.644-4.267l243.2-139.378c4.267-2.844 7.111-5.689 7.111-8.533-1.422-4.267-2.844-7.111-7.111-9.956z" />
<glyph unicode="&#xe62c;" glyph-name="products" d="M328.533 264.533h368.356v366.933h-368.356v-366.933zM368.356 591.644h285.867v-285.867h-285.867v285.867zM512 960c-283.022 0-512-230.4-512-512s228.978-512 512-512c283.022 0 512 228.978 512 512 0 281.6-228.978 512-512 512zM777.956 264.533c0-45.511-36.978-82.489-82.489-82.489h-366.933c-45.511 0-82.489 36.978-82.489 82.489v366.933c0 45.511 36.978 82.489 82.489 82.489h368.356c45.511 0 82.489-36.978 82.489-82.489v-366.933z" />
<glyph unicode="&#xe62d;" glyph-name="productsmenu" d="M393.956 605.867h-79.644c-8.533 0-15.644-7.111-15.644-15.644v-31.289c0-8.533 7.111-15.644 15.644-15.644h79.644c8.533 0 15.644 7.111 15.644 15.644v31.289c0 8.533-7.111 15.644-15.644 15.644zM709.689 605.867h-237.511c-8.533 0-15.644-7.111-15.644-15.644v-31.289c0-8.533 7.111-15.644 15.644-15.644h237.511c8.533 0 15.644 7.111 15.644 15.644v31.289c0 8.533-7.111 15.644-15.644 15.644zM393.956 479.289h-79.644c-8.533 0-15.644-7.111-15.644-15.644v-31.289c0-8.533 7.111-15.644 15.644-15.644h79.644c8.533 0 15.644 7.111 15.644 15.644v31.289c0 8.533-7.111 15.644-15.644 15.644zM709.689 479.289h-237.511c-8.533 0-15.644-7.111-15.644-15.644v-31.289c0-8.533 7.111-15.644 15.644-15.644h237.511c8.533 0 15.644 7.111 15.644 15.644v31.289c0 8.533-7.111 15.644-15.644 15.644zM393.956 352.711h-79.644c-8.533 0-15.644-7.111-15.644-15.644v-31.289c0-8.533 7.111-15.644 15.644-15.644h79.644c8.533 0 15.644 7.111 15.644 15.644v31.289c0 8.533-7.111 15.644-15.644 15.644zM709.689 352.711h-237.511c-8.533 0-15.644-7.111-15.644-15.644v-31.289c0-8.533 7.111-15.644 15.644-15.644h237.511c8.533 0 15.644 7.111 15.644 15.644v31.289c0 8.533-7.111 15.644-15.644 15.644z" />
<glyph unicode="&#xe62e;" glyph-name="quote" d="M921.6 755.2l-8.533-2.844c-46.933-15.644-126.578-46.933-129.422-174.933h115.2v-236.089h-240.356v169.244c0 100.978 0 250.311 180.622 329.956-88.178 75.378-201.956 119.467-327.111 119.467-283.022 0-512-228.978-512-512s228.978-512 512-512 512 228.978 512 512c0 115.2-38.4 221.867-102.4 307.2zM564.622 578.844v-236.089h-237.511v167.822c0 106.667 0 267.378 211.911 342.756l46.933-98.133c-45.511-15.644-132.267-42.667-135.111-177.778h113.778z" />
<glyph unicode="&#xe62f;" glyph-name="search_nobg" d="M777.956 260.267l-176.356 176.356c52.622 79.644 44.089 187.733-25.6 257.422-79.644 79.644-209.067 79.644-290.133 0-79.644-79.644-79.644-209.067 0-290.133 69.689-69.689 177.778-78.222 257.422-25.6l176.356-176.356c15.644-15.644 41.244-15.644 58.311 0s17.067 41.244 0 58.311zM430.933 426.667c-68.267 0-122.311 55.467-122.311 122.311s55.467 122.311 122.311 122.311 122.311-55.467 122.311-122.311-54.044-122.311-122.311-122.311z" />
<glyph unicode="&#xe630;" glyph-name="search" d="M512 960c-283.022 0-512-228.978-512-512s228.978-512 512-512c283.022 0 512 228.978 512 512s-228.978 512-512 512zM777.956 201.956c-15.644-15.644-41.244-15.644-58.311 0l-174.933 176.356c-79.644-52.622-187.733-44.089-257.422 25.6-79.644 79.644-79.644 209.067 0 290.133 79.644 79.644 209.067 79.644 290.133 0 69.689-69.689 78.222-177.778 25.6-257.422l176.356-176.356c15.644-17.067 15.644-42.667-1.422-58.311zM344.178 635.733c-48.356-48.356-48.356-125.156 0-173.511s125.156-48.356 173.511 0c48.356 48.356 48.356 125.156 0 173.511s-125.156 48.356-173.511 0z" />
<glyph unicode="&#xe631;" glyph-name="smartdevices" d="M207.644 554.667c-28.444-28.444-42.667-66.844-42.667-106.667s15.644-78.222 42.667-106.667l-39.822-39.822c-78.222 81.067-78.222 210.489 0 291.556l39.822-38.4zM91.022 224.711l39.822 39.822c-99.556 100.978-99.556 264.533 0 366.933l-39.822 39.822c-120.889-123.733-120.889-322.844 0-446.578zM859.022 448c0-39.822-15.644-78.222-42.667-106.667l39.822-39.822c79.644 81.067 79.644 210.489 0 291.556l-39.822-39.822c27.022-27.022 42.667-65.422 42.667-105.244zM932.978 671.289l-39.822-39.822c99.556-100.978 99.556-264.533 0-366.933l39.822-39.822c120.889 123.733 120.889 322.844 0 446.578zM753.778 871.822v-847.644c0-14.222-11.378-25.6-25.6-25.6h-438.044c-14.222 0-25.6 11.378-25.6 25.6v847.644c0 14.222 11.378 25.6 25.6 25.6h438.044c14.222 0 25.6-11.378 25.6-25.6zM554.667 73.956c0 5.689-4.267 9.956-9.956 9.956h-71.111c-5.689 0-9.956-4.267-9.956-9.956v-25.6c0-5.689 4.267-9.956 9.956-9.956h71.111c5.689 0 9.956 4.267 9.956 9.956v25.6zM704 809.244h-389.689v-686.933h391.111v686.933zM355.556 748.089v-580.267h307.2l-307.2 580.267z" />
<glyph unicode="&#xe632;" glyph-name="socfb" d="M512 960c-283.022 0-512-228.978-512-512s228.978-512 512-512 512 228.978 512 512-228.978 512-512 512zM638.578 448h-81.067v-295.822h-122.311v295.822h-61.156v102.4h61.156v61.156c0 82.489 34.133 132.267 132.267 132.267h81.067v-102.4h-51.2c-38.4 0-41.244-14.222-41.244-41.244v-51.2h92.444l-9.956-100.978z" />
<glyph unicode="&#xe633;" glyph-name="socli" d="M512 960c-283.022 0-512-228.978-512-512s228.978-512 512-512 512 228.978 512 512-228.978 512-512 512zM368.356 196.267h-109.511v351.289h109.511v-351.289zM312.889 591.644c-34.133 0-56.889 24.178-56.889 54.044 0 31.289 22.756 54.044 58.311 54.044s56.889-24.178 58.311-54.044c0-29.867-22.756-54.044-59.733-54.044zM768 196.267h-109.511v194.844c0 45.511-15.644 76.8-55.467 76.8-29.867 0-48.356-21.333-55.467-41.244-2.844-7.111-4.267-17.067-4.267-27.022v-203.378h-109.511v238.933c0 44.089-1.422 81.067-2.844 112.356h95.289l5.689-48.356h2.844c14.222 22.756 49.778 56.889 108.089 56.889 72.533 0 126.578-48.356 126.578-152.178v-207.644z" />
<glyph unicode="&#xe634;" glyph-name="socpin" d="M512 960c-283.022 0-512-228.978-512-512s228.978-512 512-512 512 228.978 512 512-228.978 512-512 512zM560.356 264.533c-39.822 0-76.8 21.333-88.178 45.511 0 0-21.333-83.911-25.6-99.556-15.644-56.889-62.578-113.778-65.422-119.467-2.844-2.844-8.533-2.844-8.533 1.422-1.422 7.111-12.8 79.644 1.422 137.956 7.111 29.867 46.933 197.689 46.933 197.689s-11.378 22.756-11.378 56.889c0 54.044 31.289 93.867 69.689 93.867 32.711 0 48.356-24.178 48.356-54.044 0-32.711-21.333-82.489-32.711-129.422-8.533-38.4 19.911-69.689 56.889-69.689 68.267 0 115.2 88.178 115.2 193.422 0 79.644-54.044 139.378-150.756 139.378-110.933 0-179.2-82.489-179.2-173.511 0-31.289 9.956-54.044 24.178-71.111 7.111-8.533 7.111-11.378 5.689-19.911-1.422-7.111-5.689-22.756-7.111-29.867-2.844-8.533-9.956-12.8-18.489-8.533-51.2 21.333-73.956 76.8-73.956 139.378 0 103.822 86.756 227.556 260.267 227.556 139.378 0 230.4-100.978 230.4-207.644-1.422-143.644-81.067-250.311-197.689-250.311z" />
<glyph unicode="&#xe635;" glyph-name="soctwitter" d="M512 960c-283.022 0-512-228.978-512-512s228.978-512 512-512 512 228.978 512 512-228.978 512-512 512zM762.311 557.511c0-5.689 0-11.378 0-15.644 0-163.556-125.156-352.711-352.711-352.711-69.689 0-135.111 19.911-190.578 55.467 9.956-1.422 19.911-1.422 29.867-1.422 58.311 0 110.933 19.911 153.6 52.622-54.044 1.422-99.556 36.978-115.2 86.756 7.111-1.422 15.644-2.844 22.756-2.844 11.378 0 22.756 1.422 32.711 4.267-56.889 11.378-99.556 61.156-99.556 120.889 0 0 0 1.422 0 1.422 17.067-9.956 35.556-14.222 55.467-15.644-32.711 22.756-55.467 59.733-55.467 103.822 0 22.756 5.689 44.089 17.067 62.578 61.156-75.378 152.178-123.733 256-129.422-1.422 8.533-2.844 18.489-2.844 28.444 0 68.267 55.467 123.733 123.733 123.733 35.556 0 68.267-15.644 91.022-39.822 28.444 5.689 55.467 15.644 78.222 29.867-9.956-28.444-28.444-52.622-54.044-68.267 25.6 2.844 48.356 9.956 71.111 19.911-15.644-25.6-35.556-46.933-61.156-64z" />
<glyph unicode="&#xe636;" glyph-name="socyt" d="M512 960c-283.022 0-512-228.978-512-512s228.978-512 512-512 512 228.978 512 512-228.978 512-512 512zM777.956 428.089c0-42.667-5.689-85.333-5.689-85.333s-5.689-36.978-21.333-52.622c-19.911-21.333-42.667-21.333-52.622-22.756-75.378-5.689-186.311-5.689-186.311-5.689s-137.956 1.422-180.622 5.689c-11.378 2.844-38.4 1.422-58.311 22.756-15.644 15.644-21.333 52.622-21.333 52.622s-5.689 42.667-5.689 85.333v39.822c0 42.667 5.689 85.333 5.689 85.333s5.689 36.978 21.333 52.622c19.911 21.333 42.667 21.333 52.622 22.756 73.956 5.689 186.311 5.689 186.311 5.689v0c0 0 110.933 0 186.311-5.689 9.956-1.422 32.711-1.422 52.622-22.756 15.644-15.644 21.333-52.622 21.333-52.622s5.689-42.667 5.689-85.333v-39.822zM456.533 379.733l143.644 73.956-143.644 73.956z" />
<glyph unicode="&#xe637;" glyph-name="somethingelse" d="M396.8 514.844c-35.556-8.533-69.689 14.222-78.222 49.778s14.222 69.689 49.778 78.222c35.556 8.533 69.689-14.222 78.222-49.778s-14.222-71.111-49.778-78.222zM418.133 425.244c-83.911-18.489-167.822 34.133-187.733 118.044-18.489 83.911 34.133 167.822 118.044 187.733 83.911 18.489 167.822-34.133 187.733-118.044 18.489-83.911-34.133-167.822-118.044-187.733zM510.578 607.289c-15.644 71.111-85.333 115.2-156.444 98.133-71.111-15.644-115.2-85.333-98.133-156.444 15.644-71.111 85.333-115.2 156.444-98.133 69.689 15.644 113.778 85.333 98.133 156.444zM604.444 709.689l-72.533 78.222-41.244-24.178c-27.022 15.644-58.311 25.6-91.022 28.444l-19.911 42.667-105.244-24.178 1.422-46.933c-28.444-15.644-52.622-38.4-69.689-65.422l-46.933 5.689-31.289-102.4 41.244-22.756c0-15.644 1.422-31.289 5.689-48.356 4.267-15.644 8.533-31.289 15.644-45.511l-27.022-38.4 72.533-78.222 41.244 24.178c27.022-15.644 58.311-25.6 91.022-28.444l19.911-42.667 105.244 24.178-1.422 46.933c28.444 15.644 52.622 38.4 69.689 65.422l46.933-4.267 31.289 102.4-42.667 21.333c0 15.644-1.422 31.289-5.689 48.356-4.267 15.644-8.533 31.289-15.644 45.511l28.444 38.4zM877.511 348.444l-38.4-5.689c-14.222 25.6-36.978 48.356-65.422 62.578l4.267 38.4-66.844 15.644-14.222-35.556c-31.289 0-61.156-8.533-86.756-25.6l-31.289 22.756-46.933-49.778 24.178-29.867c-7.111-12.8-12.8-27.022-17.067-42.667s-5.689-31.289-4.267-45.511l-35.556-15.644 18.489-65.422 38.4 5.689c15.644-27.022 38.4-48.356 65.422-62.578l-4.267-38.4 66.844-15.644 14.222 35.556c31.289 0 61.156 8.533 86.756 25.6l31.289-22.756 46.933 49.778-24.178 29.867c7.111 12.8 12.8 27.022 17.067 42.667s5.689 31.289 4.267 45.511l35.556 15.644-18.489 65.422z" />
<glyph unicode="&#xe638;" glyph-name="support" d="M512 325.689c-25.6 0-45.511-19.911-45.511-45.511s19.911-45.511 45.511-45.511 45.511 19.911 45.511 45.511c0 27.022-19.911 45.511-45.511 45.511zM512 659.911c-91.022 0-133.689-59.733-137.956-112.356l68.267-8.533c8.533 41.244 32.711 64 72.533 64 31.289 0 64-17.067 64-52.622 0-22.756-11.378-32.711-48.356-62.578-52.622-41.244-54.044-65.422-52.622-118.044h66.844c0 4.267 0 8.533 0 9.956 0 28.444 2.844 36.978 34.133 62.578 52.622 42.667 72.533 68.267 72.533 105.244-1.422 62.578-58.311 112.356-139.378 112.356zM512 960c-283.022 0-512-230.4-512-512s228.978-512 512-512c283.022 0 512 228.978 512 512 0 281.6-228.978 512-512 512zM512 140.8c-56.889 0-108.089 15.644-153.6 41.244l-142.222-32.711 32.711 139.378c-28.444 46.933-44.089 100.978-44.089 157.867 0 169.244 137.956 307.2 307.2 307.2s307.2-136.533 307.2-305.778c0-169.244-137.956-307.2-307.2-307.2z" />
<glyph unicode="&#xe639;" glyph-name="switchingproducts" d="M0 924.444v-954.311c0-18.489 15.644-34.133 35.556-34.133h954.311c19.911 0 35.556 15.644 35.556 35.556v952.889c-1.422 19.911-17.067 35.556-36.978 35.556h-952.889c-19.911 0-35.556-15.644-35.556-35.556zM135.111 622.933l157.867 189.156 157.867-189.156 157.867 189.156 159.289-189.156h-105.244v-213.333h-105.244v213.333h-210.489v-213.333h-105.244v213.333h-106.667zM769.422 73.956l-157.867 189.156-157.867-189.156-157.867 189.156h105.244v213.333h105.244v-213.333h210.489v213.333h105.244v-213.333h105.244l-157.867-189.156z" />
<glyph unicode="&#xe63a;" glyph-name="techpages" d="M426.667 536.178h-419.556c-4.267-28.444-7.111-58.311-7.111-88.178 0-230.4 153.6-426.667 362.667-490.667v432.356c0 4.267-4.267 8.533-8.533 8.533h-130.844c-8.533-35.556-39.822-62.578-78.222-62.578-44.089 0-81.067 35.556-81.067 81.067 0 44.089 35.556 81.067 81.067 81.067 38.4 0 71.111-27.022 78.222-62.578h130.844c24.178 0 44.089-19.911 44.089-44.089v-440.889c12.8-2.844 24.178-5.689 36.978-7.111v584.533c0 4.267-2.844 8.533-8.533 8.533zM610.133 950.044v-295.822c0-4.267 4.267-8.533 8.533-8.533h130.844c8.533 35.556 39.822 62.578 78.222 62.578 44.089 0 81.067-35.556 81.067-81.067 0-44.089-35.556-81.067-81.067-81.067-38.4 0-71.111 27.022-78.222 62.578h-130.844c-24.178 0-44.089 19.911-44.089 44.089v302.933c-21.333 2.844-41.244 4.267-62.578 4.267-240.356 0-442.311-164.978-496.356-388.267h412.444c24.178 0 44.089-19.911 44.089-44.089v-590.222c9.956-1.422 21.333-1.422 31.289-1.422v723.911c0 4.267-4.267 8.533-8.533 8.533h-130.844c-8.533-35.556-39.822-62.578-78.222-62.578-44.089 0-81.067 35.556-81.067 81.067 0 44.089 35.556 81.067 81.067 81.067 38.4 0 71.111-27.022 78.222-62.578h130.844c24.178 0 44.089-19.911 44.089-44.089v-725.333c11.378 0 24.178 1.422 35.556 2.844v402.489c0 24.178 19.911 44.089 44.089 44.089h130.844c8.533 35.556 39.822 62.578 78.222 62.578 44.089 0 81.067-35.556 81.067-81.067 0-44.089-35.556-81.067-81.067-81.067-38.4 0-69.689 27.022-78.222 62.578h-130.844c-4.267 0-8.533-4.267-8.533-8.533v-395.378c236.089 46.933 413.867 254.578 413.867 503.467s-177.778 456.533-413.867 502.044zM100.978 416.711c0-24.178 19.911-45.511 45.511-45.511s45.511 19.911 45.511 45.511c0 24.178-19.911 45.511-45.511 45.511s-45.511-21.333-45.511-45.511zM871.822 628.622c0 24.178-19.911 45.511-45.511 45.511s-44.089-21.333-44.089-45.511c0-24.178 19.911-45.511 45.511-45.511s44.089 19.911 44.089 45.511zM241.778 686.933c0-24.178 19.911-45.511 45.511-45.511 24.178 0 45.511 19.911 45.511 45.511 0 24.178-19.911 45.511-45.511 45.511-25.6-1.422-45.511-21.333-45.511-45.511zM871.822 366.933c0 24.178-19.911 45.511-45.511 45.511s-44.089-19.911-44.089-45.511c0-24.178 19.911-45.511 45.511-45.511s44.089 21.333 44.089 45.511z" />
<glyph unicode="&#xe63b;" glyph-name="trending" d="M512 960c-283.022 0-512-230.4-512-512s228.978-512 512-512c283.022 0 512 228.978 512 512 0 281.6-228.978 512-512 512zM614.4 428.089v-285.867h-204.8v285.867h-204.8l307.2 368.356 307.2-368.356h-204.8z" />
<glyph unicode="&#xe63c;" glyph-name="values" d="M512 960c-283.022 0-512-228.978-512-512s228.978-512 512-512 512 228.978 512 512-228.978 512-512 512zM512 768c41.244 0 73.956-32.711 73.956-73.956s-32.711-73.956-73.956-73.956-73.956 32.711-73.956 73.956c0 41.244 32.711 73.956 73.956 73.956zM290.133 324.267c-54.044 0-98.133 44.089-98.133 98.133h196.267c0-54.044-44.089-98.133-98.133-98.133zM216.178 439.467l66.844 66.844c4.267 4.267 9.956 4.267 14.222 0l66.844-66.844h-28.444l-45.511 45.511-45.511-45.511h-28.444zM561.778 128h-98.133l-42.667 393.956h-129.422c-18.489 0-32.711 14.222-32.711 32.711s14.222 32.711 32.711 32.711h177.778l42.667-66.844 42.667 66.844h179.2c18.489 0 32.711-14.222 32.711-32.711s-14.222-32.711-32.711-32.711h-128l-44.089-393.956zM807.822 439.467h-28.444l-45.511 45.511-45.511-45.511h-28.444l66.844 66.844c4.267 4.267 9.956 4.267 14.222 0l66.844-66.844zM733.867 324.267c-54.044 0-98.133 44.089-98.133 98.133h196.267c0-54.044-44.089-98.133-98.133-98.133z" />
<glyph unicode="&#xe63d;" glyph-name="vision" d="M1024 448c0 283.022-228.978 512-512 512s-512-228.978-512-512c0-283.022 228.978-512 512-512s512 228.978 512 512zM832 448c0 0-143.644-231.822-320-231.822s-320 231.822-320 231.822 143.644 231.822 320 231.822 320-231.822 320-231.822zM665.6 448c0-83.911-69.689-153.6-153.6-153.6-85.333 0-153.6 69.689-153.6 153.6 0 85.333 69.689 153.6 153.6 153.6 85.333 0 153.6-69.689 153.6-153.6zM548.978 415.289c-38.4 0-69.689 31.289-69.689 69.689 0 32.711 22.756 61.156 54.044 68.267-7.111 1.422-12.8 1.422-19.911 1.422-59.733 0-106.667-48.356-106.667-106.667s48.356-106.667 106.667-106.667c59.733 0 106.667 48.356 106.667 106.667 0 7.111 0 14.222-1.422 19.911-8.533-29.867-36.978-52.622-69.689-52.622z" />
</font>
</defs>
</svg>
