<svg xmlns="http://www.w3.org/2000/svg" width="46" height="35" viewBox="0 0 46 35">
  <defs>
    <style>
      .cls-1 {
        fill: #0092b2;
        fill-rule: evenodd;
      }
    </style>
  </defs>
  <g id="enterprise_storage">
    <path id="enterprise_storage-2" data-name="enterprise_storage" class="cls-1" d="M181.205,24.108h-25.41a1.294,1.294,0,0,0-1.3,1.291v5.8a1.3,1.3,0,0,0,1.3,1.292h25.41a1.3,1.3,0,0,0,1.3-1.292V25.4A1.294,1.294,0,0,0,181.205,24.108Zm-22.343,5.823A1.629,1.629,0,1,1,160.5,28.3,1.632,1.632,0,0,1,158.862,29.931Zm18.2-3.269a0.547,0.547,0,1,1-.549.547A0.548,0.548,0,0,1,177.059,26.661Zm-2.195,0a0.547,0.547,0,1,1-.55.547A0.548,0.548,0,0,1,174.864,26.661Zm-2.2,0a0.547,0.547,0,1,1-.55.547A0.548,0.548,0,0,1,172.668,26.661Zm-2.195,0a0.547,0.547,0,1,1-.55.547A0.548,0.548,0,0,1,170.473,26.661Zm-2.2,0a0.547,0.547,0,1,1-.55.547A0.548,0.548,0,0,1,168.277,26.661Zm0,3.28a0.547,0.547,0,1,1,.55-0.547A0.548,0.548,0,0,1,168.277,29.942Zm1.1-1.091a0.547,0.547,0,1,1,.55-0.547A0.548,0.548,0,0,1,169.376,28.85Zm1.1,1.091a0.547,0.547,0,1,1,.549-0.547A0.548,0.548,0,0,1,170.473,29.942Zm1.1-1.091a0.547,0.547,0,1,1,.55-0.547A0.549,0.549,0,0,1,171.572,28.85Zm1.1,1.091a0.547,0.547,0,1,1,.55-0.547A0.548,0.548,0,0,1,172.668,29.942Zm1.1-1.091a0.547,0.547,0,1,1,.549-0.547A0.549,0.549,0,0,1,173.768,28.85Zm1.1,1.091a0.547,0.547,0,1,1,.549-0.547A0.548,0.548,0,0,1,174.864,29.942Zm1.1-1.091a0.547,0.547,0,1,1,.55-0.547A0.549,0.549,0,0,1,175.963,28.85Zm1.1,1.091a0.547,0.547,0,1,1,.55-0.547A0.548,0.548,0,0,1,177.059,29.942Zm1.1-1.091a0.547,0.547,0,1,1,.55-0.547A0.549,0.549,0,0,1,178.159,28.85Zm1.1,1.091a0.547,0.547,0,1,1,.55-0.547A0.548,0.548,0,0,1,179.255,29.942Zm0-2.186a0.547,0.547,0,1,1,.55-0.547A0.548,0.548,0,0,1,179.255,27.756Zm1.95-14.45h-25.41a1.294,1.294,0,0,0-1.3,1.291v5.8a1.294,1.294,0,0,0,1.3,1.292h25.41a1.294,1.294,0,0,0,1.3-1.292V14.6A1.294,1.294,0,0,0,181.205,13.306Zm-22.343,5.823A1.629,1.629,0,1,1,160.5,17.5,1.632,1.632,0,0,1,158.862,19.129Zm18.2-3.269a0.547,0.547,0,1,1-.549.547A0.548,0.548,0,0,1,177.059,15.86Zm-2.195,0a0.547,0.547,0,1,1-.55.547A0.548,0.548,0,0,1,174.864,15.86Zm-2.2,0a0.547,0.547,0,1,1-.55.547A0.548,0.548,0,0,1,172.668,15.86Zm-2.195,0a0.547,0.547,0,1,1-.55.547A0.548,0.548,0,0,1,170.473,15.86Zm-2.2,0a0.547,0.547,0,1,1-.55.547A0.548,0.548,0,0,1,168.277,15.86Zm0,3.28a0.547,0.547,0,1,1,.55-0.547A0.548,0.548,0,0,1,168.277,19.14Zm1.1-1.091a0.547,0.547,0,1,1,.55-0.547A0.548,0.548,0,0,1,169.376,18.049Zm1.1,1.091a0.547,0.547,0,1,1,.549-0.547A0.548,0.548,0,0,1,170.473,19.14Zm1.1-1.091a0.547,0.547,0,1,1,.55-0.547A0.548,0.548,0,0,1,171.572,18.049Zm1.1,1.091a0.547,0.547,0,1,1,.55-0.547A0.548,0.548,0,0,1,172.668,19.14Zm1.1-1.091a0.547,0.547,0,1,1,.549-0.547A0.548,0.548,0,0,1,173.768,18.049Zm1.1,1.091a0.547,0.547,0,1,1,.549-0.547A0.548,0.548,0,0,1,174.864,19.14Zm1.1-1.091a0.547,0.547,0,1,1,.55-0.547A0.549,0.549,0,0,1,175.963,18.049Zm1.1,1.091a0.547,0.547,0,1,1,.55-0.547A0.548,0.548,0,0,1,177.059,19.14Zm1.1-1.091a0.547,0.547,0,1,1,.55-0.547A0.548,0.548,0,0,1,178.159,18.049Zm1.1,1.091a0.547,0.547,0,1,1,.55-0.547A0.548,0.548,0,0,1,179.255,19.14Zm0-2.186a0.547,0.547,0,1,1,.55-0.547A0.548,0.548,0,0,1,179.255,16.954Zm1.95-14.45h-25.41A1.294,1.294,0,0,0,154.5,3.8V9.6a1.294,1.294,0,0,0,1.3,1.292h25.41A1.294,1.294,0,0,0,182.5,9.6V3.8A1.294,1.294,0,0,0,181.205,2.5ZM158.862,8.328A1.629,1.629,0,1,1,160.5,6.7,1.632,1.632,0,0,1,158.862,8.328Zm18.2-3.269a0.547,0.547,0,1,1-.549.547A0.549,0.549,0,0,1,177.059,5.058Zm-2.195,0a0.547,0.547,0,1,1-.55.547A0.548,0.548,0,0,1,174.864,5.058Zm-2.2,0a0.547,0.547,0,1,1-.55.547A0.549,0.549,0,0,1,172.668,5.058Zm-2.195,0a0.547,0.547,0,1,1-.55.547A0.548,0.548,0,0,1,170.473,5.058Zm-2.2,0a0.547,0.547,0,1,1-.55.547A0.549,0.549,0,0,1,168.277,5.058Zm0,3.28a0.547,0.547,0,1,1,.55-0.547A0.548,0.548,0,0,1,168.277,8.339Zm1.1-1.091a0.547,0.547,0,1,1,.55-0.547A0.548,0.548,0,0,1,169.376,7.247Zm1.1,1.091a0.547,0.547,0,1,1,.549-0.547A0.548,0.548,0,0,1,170.473,8.339Zm1.1-1.091a0.547,0.547,0,1,1,.55-0.547A0.548,0.548,0,0,1,171.572,7.247Zm1.1,1.091a0.547,0.547,0,1,1,.55-0.547A0.548,0.548,0,0,1,172.668,8.339Zm1.1-1.091a0.547,0.547,0,1,1,.549-0.547A0.548,0.548,0,0,1,173.768,7.247Zm1.1,1.091a0.547,0.547,0,1,1,.549-0.547A0.548,0.548,0,0,1,174.864,8.339Zm1.1-1.091a0.547,0.547,0,1,1,.55-0.547A0.549,0.549,0,0,1,175.963,7.247Zm1.1,1.091a0.547,0.547,0,1,1,.55-0.547A0.548,0.548,0,0,1,177.059,8.339Zm1.1-1.091a0.547,0.547,0,1,1,.55-0.547A0.548,0.548,0,0,1,178.159,7.247Zm1.1,1.091a0.547,0.547,0,1,1,.55-0.547A0.548,0.548,0,0,1,179.255,8.339Zm0-2.186a0.547,0.547,0,1,1,.55-0.547A0.548,0.548,0,0,1,179.255,6.153Zm-19.3.546a1.093,1.093,0,1,1-1.093-1.088A1.09,1.09,0,0,1,159.955,6.7Zm0,10.8a1.093,1.093,0,1,1-1.093-1.088A1.09,1.09,0,0,1,159.955,17.5Zm0,10.8a1.093,1.093,0,1,1-1.093-1.088A1.09,1.09,0,0,1,159.955,28.3Z" transform="translate(-146)"/>
  </g>
</svg>
