<svg xmlns="http://www.w3.org/2000/svg" width="46" height="35" viewBox="0 0 46 35">
  <defs>
    <style>
      .cls-1 {
        fill: #0092b2;
        fill-rule: evenodd;
      }
    </style>
  </defs>
  <g id="industrial">
    <path id="industrial-2" data-name="industrial" class="cls-1" d="M615.327,13.179c0.109-.057.2-0.108,0.295-0.165q2.232-1.34,4.471-2.68a1.249,1.249,0,0,1,1.085-.181,1.277,1.277,0,0,1,.806.925v0.237a1.617,1.617,0,0,1-.909,1.105c-1.747,1.033-3.489,2.086-5.231,3.129a1.215,1.215,0,0,1-1.835-.325c-0.7-.878-1.411-1.751-2.1-2.634a0.517,0.517,0,0,0-.465-0.227c-0.667.015-1.328,0.005-2,.005a1.189,1.189,0,0,1-1.339-1.141h-5.99a5.79,5.79,0,0,0-.01-4.6h6c0.015-.083.031-0.134,0.041-0.191a1.148,1.148,0,0,1,1.179-.971c0.7-.01,1.406-0.015,2.108,0a0.535,0.535,0,0,0,.491-0.237c0.584-.744,1.179-1.482,1.773-2.221a2.683,2.683,0,0,1,1.127-1.017h0.413c0.321,0.171.646,0.325,0.951,0.506,1.623,0.966,3.236,1.947,4.859,2.9a1.774,1.774,0,0,1,.94,1.048V6.739a2.934,2.934,0,0,1-.356.651,1.147,1.147,0,0,1-1.546.108q-2.239-1.34-4.476-2.685c-0.087-.052-0.18-0.1-0.294-0.165-0.481.6-.951,1.183-1.416,1.771a5.886,5.886,0,0,0-1.1,1.467,5.571,5.571,0,0,0-.047,1.833,0.894,0.894,0,0,0,.171.475c0.739,0.945,1.494,1.88,2.248,2.814C615.219,13.07,615.276,13.122,615.327,13.179Zm-0.284,14.454c0,0.95-.021,1.9.01,2.846a1.378,1.378,0,0,1-.935,1.534H595.165a0.28,0.28,0,0,0-.062-0.057,1.144,1.144,0,0,1-.847-1.193c0-1.095-.011-2.19,0-3.284a1.134,1.134,0,0,1,1.256-1.224c1.535-.005,3.07,0,4.6,0h0.4c-2.832-4.983-4.584-8.009-7.313-12.383a5.681,5.681,0,0,0,4.021,1.307A5.132,5.132,0,0,0,601,13.267c0.073,0.114.135,0.207,0.192,0.3q3.612,6.181,7.215,12.368a0.569,0.569,0,0,0,.579.32c1.56-.016,3.127-0.01,4.692-0.005A1.191,1.191,0,0,1,615.043,27.633ZM596.8,4.176a4.777,4.777,0,1,0,4.78,4.777A4.779,4.779,0,0,0,596.8,4.176Zm0,6.727a1.95,1.95,0,1,1,1.952-1.95A1.951,1.951,0,0,1,596.8,10.9Z" transform="translate(-584)"/>
  </g>
</svg>
