<svg xmlns="http://www.w3.org/2000/svg" width="46" height="35" viewBox="0 0 46 35">
  <defs>
    <style>
      .cls-1 {
        fill: #0092b2;
        fill-rule: evenodd;
      }
    </style>
  </defs>
  <g id="wired_infrastructure">
    <path id="wired_infrastructure-2" data-name="wired_infrastructure" class="cls-1" d="M336.316,13.7a0.888,0.888,0,0,1-.3-0.061V13.7h-30V13.637a0.888,0.888,0,0,1-.3.061,0.9,0.9,0,1,1,0-1.8,0.888,0.888,0,0,1,.3.061V11.9h30v0.061a0.888,0.888,0,0,1,.3-0.061A0.9,0.9,0,1,1,336.316,13.7Zm-10.8-4.8a0.879,0.879,0,0,1-.3-0.061V8.9h-24V8.841a0.879,0.879,0,0,1-.3.061,0.9,0.9,0,1,1,0-1.8,0.879,0.879,0,0,1,.3.061V7.1h24V7.164a0.879,0.879,0,0,1,.3-0.061A0.9,0.9,0,0,1,325.518,8.9Zm0.9,7.793v0.06a0.888,0.888,0,0,1,.3-0.06,0.9,0.9,0,1,1,0,1.8,0.888,0.888,0,0,1-.3-0.06v0.06h-33v-0.06a0.883,0.883,0,0,1-.3.06,0.9,0.9,0,1,1,0-1.8,0.883,0.883,0,0,1,.3.06v-0.06h33Zm-28.5,4.8a0.888,0.888,0,0,1,.3.06V21.49h33v0.06a0.888,0.888,0,0,1,.3-0.06,0.9,0.9,0,1,1,0,1.8,0.888,0.888,0,0,1-.3-0.06v0.06h-33v-0.06a0.888,0.888,0,0,1-.3.06A0.9,0.9,0,1,1,297.921,21.49Zm6,4.8a0.888,0.888,0,0,1,.3.061V26.286h24v0.061a0.888,0.888,0,0,1,.3-0.061,0.9,0.9,0,1,1,0,1.8,0.888,0.888,0,0,1-.3-0.06v0.06h-24v-0.06a0.888,0.888,0,0,1-.3.06A0.9,0.9,0,1,1,303.92,26.286Z" transform="translate(-292)"/>
  </g>
</svg>
