<svg xmlns="http://www.w3.org/2000/svg" width="46" height="35" viewBox="0 0 46 35">
  <defs>
    <style>
      .cls-1 {
        fill: #0092b2;
        fill-rule: evenodd;
      }
    </style>
  </defs>
  <g id="wireless_communications">
    <path id="wireless_communications-2" data-name="wireless_communications" class="cls-1" d="M458.994,10.409a1.932,1.932,0,1,1,1.932,1.913A1.923,1.923,0,0,1,458.994,10.409Zm8.11,6.518,1.419,1.406a11.243,11.243,0,0,0,.014-15.847l-1.417,1.4A9.269,9.269,0,0,1,467.1,16.927Zm-1.349-1.336a7.389,7.389,0,0,0,.009-10.365l-1.417,1.4a5.405,5.405,0,0,1-.014,7.553Zm-9.518,0,1.418-1.4a5.4,5.4,0,0,1,.013-7.553l-1.422-1.408A7.389,7.389,0,0,0,456.237,15.592Zm-1.356,1.337A9.27,9.27,0,0,1,454.9,3.892l-1.419-1.406a11.243,11.243,0,0,0-.014,15.847Zm17.045,11.006-10.781,4.52a0.564,0.564,0,0,1-.437,0L449.93,27.937a0.568,0.568,0,0,1-.181-0.926l9.876-9.849a1.829,1.829,0,0,1,2.695.006l9.789,9.843A0.568,0.568,0,0,1,471.926,27.935Z" transform="translate(-438)"/>
  </g>
</svg>
